<?xml version="1.0" encoding="UTF-8"?>
<!DOCTYPE svg PUBLIC "-//W3C//DTD SVG 1.1//EN" "http://www.w3.org/Graphics/SVG/1.1/DTD/svg11.dtd">
<!-- Creator: CorelDRAW -->
<svg xmlns="http://www.w3.org/2000/svg" xml:space="preserve" width="1300mm" height="900mm" style="shape-rendering:geometricPrecision; text-rendering:geometricPrecision; image-rendering:optimizeQuality; fill-rule:evenodd; clip-rule:evenodd"
viewBox="0 0 1300 900"
 xmlns:xlink="http://www.w3.org/1999/xlink">
 <defs>
  <style type="text/css">
   <![CDATA[
    .str0 {stroke:black;stroke-width:0.15;stroke-linejoin:bevel}
    .fil0 {fill:none}
   ]]>
  </style>
 </defs>
 <g id="_0">
  <metadata id="CorelCorpID_0Corel-Layer"/>
  <path class="fil0 str0" d="M466.39 472.633c-2.209,0 -3.9999,1.7908 -3.9999,4 0,2.2091 1.7908,4 3.9999,4 2.2091,0 4,-1.7909 4,-4 0,-2.2091 -1.7908,-4 -4,-4z"/>
  <path class="fil0 str0" d="M440.508 201.04c-2.2091,0 -4,1.7909 -4,4 0,2.2091 1.7908,4 4,4 2.2091,0 4,-1.7909 4,-4 0,-2.2091 -1.7909,-4 -4,-4z"/>
  <path class="fil0 str0" d="M480.508 251.04c-2.2091,0 -4,1.7909 -4,4 0,2.2091 1.7908,4 4,4 2.2091,0 4,-1.7909 4,-4 0,-2.2091 -1.7909,-4 -4,-4z"/>
  <path class="fil0 str0" d="M453.449 424.337c-2.2091,0 -4,1.7908 -4,4 0,2.2091 1.7909,4 4,4 2.2092,0 4,-1.7909 4,-4 0.0001,-2.2091 -1.7908,-4 -3.9999,-4z"/>
  <path class="fil0 str0" d="M440.508 288.54c-2.2091,0 -4,1.7909 -4,4 0,2.2091 1.7908,4 4,4 2.2091,0 4,-1.7909 4,-4 0,-2.2091 -1.7909,-4 -4,-4z"/>
  <path class="fil0 str0" d="M435.508 412.34c-1.215,0 -2.2,0.985 -2.2,2.2 0,1.215 0.985,2.2 2.2,2.2 1.215,0 2.2,-0.985 2.2,-2.2 0,-1.215 -0.985,-2.2 -2.2,-2.2z"/>
  <path class="fil0 str0" d="M445.508 412.34c-1.215,0 -2.2,0.985 -2.2,2.2 0,1.215 0.985,2.2 2.2,2.2 1.215,0 2.2,-0.985 2.2,-2.2 0,-1.215 -0.985,-2.2 -2.2,-2.2z"/>
  <path class="fil0 str0" d="M445.508 364.34c-1.215,0 -2.2,0.985 -2.2,2.2 0,1.215 0.985,2.2 2.2,2.2 1.215,0 2.2,-0.985 2.2,-2.2 0,-1.215 -0.985,-2.2 -2.2,-2.2z"/>
  <path class="fil0 str0" d="M435.508 364.34c-1.215,0 -2.2,0.985 -2.2,2.2 0,1.215 0.985,2.2 2.2,2.2 1.215,0 2.2,-0.985 2.2,-2.2 0,-1.215 -0.985,-2.2 -2.2,-2.2z"/>
  <line class="fil0 str0" x1="416.36" y1="386.511" x2="441.39" y2= "479.924" />
  <line class="fil0 str0" x1="415.508" y1="205.04" x2="415.508" y2= "380.04" />
  <line class="fil0 str0" x1="460.03" y1="189.423" x2="510.141" y2= "252.062" />
  <line class="fil0 str0" x1="472.831" y1="322.718" x2="508.186" y2= "287.363" />
  <line class="fil0 str0" x1="465.508" y1="373.458" x2="465.508" y2= "340.396" />
  <line class="fil0 str0" x1="490.538" y1="470.163" x2="466.36" y2= "379.928" />
  <line class="fil0 str0" x1="491.39" y1="476.633" x2="491.39" y2= "479.924" />
  <line class="fil0 str0" x1="450.508" y1="411.04" x2="430.508" y2= "411.04" />
  <line class="fil0 str0" x1="450.508" y1="370.04" x2="450.508" y2= "411.04" />
  <line class="fil0 str0" x1="430.508" y1="370.04" x2="450.508" y2= "370.04" />
  <line class="fil0 str0" x1="430.508" y1="411.04" x2="430.508" y2= "370.04" />
  <path class="fil0 str0" d="M415.508 380.04c0,2.1848 0.2864,4.3601 0.8518,6.4705"/>
  <path class="fil0 str0" d="M460.03 189.423c-6.6325,-8.2906 -17.7781,-11.4877 -27.7968,-7.9733 -10.0187,3.5143 -16.7249,12.9734 -16.7249,23.5906"/>
  <path class="fil0 str0" d="M508.186 287.363c9.5503,-9.5503 10.3923,-24.7543 1.9551,-35.3008"/>
  <path class="fil0 str0" d="M472.831 322.718c-4.6884,4.6884 -7.3222,11.0472 -7.3222,17.6776"/>
  <path class="fil0 str0" d="M465.508 373.458c0,2.1848 0.2863,4.3601 0.8517,6.4704"/>
  <path class="fil0 str0" d="M491.39 476.633c0,-2.1848 -0.2864,-4.3602 -0.8519,-6.4705"/>
  <path class="fil0 str0" d="M441.39 479.924c1.6517,12.5458 12.346,21.9244 24.9999,21.9244 12.654,0 23.3483,-9.3786 25,-21.9244"/>
 </g>
 <g id="_0_0">
  <metadata id="CorelCorpID_1Corel-Layer"/>
  <path class="fil0 str0" d="M842.311 658.361c0,-1.1045 -0.8955,-1.9999 -2,-1.9999 -1.1046,-0.0001 -2,0.8954 -2,1.9999 -0.0001,1.1045 0.8954,1.9999 1.9999,1.9999 1.1046,0.0001 2,-0.8954 2,-1.9999z"/>
  <path class="fil0 str0" d="M856.561 658.361c0,-1.1045 -0.8955,-1.9999 -2,-1.9999 -1.1046,-0.0001 -2,0.8954 -2,1.9999 -0.0001,1.1045 0.8954,1.9999 1.9999,1.9999 1.1046,0.0001 2,-0.8954 2,-1.9999z"/>
  <path class="fil0 str0" d="M701.436 658.361c0,-2.2091 -1.7908,-3.9999 -3.9999,-3.9999 -2.2092,-0.0001 -4,1.7908 -4,3.9999 -0.0001,2.2091 1.7908,3.9999 3.9999,3.9999 2.2092,0.0001 4,-1.7908 4,-3.9999z"/>
  <path class="fil0 str0" d="M851.436 658.361c0,-2.2091 -1.7908,-3.9999 -3.9999,-3.9999 -2.2092,-0.0001 -4,1.7908 -4,3.9999 -0.0001,2.2091 1.7908,3.9999 3.9999,3.9999 2.2092,0.0001 4,-1.7908 4,-3.9999z"/>
  <path class="fil0 str0" d="M849.436 651.236c0,-1.1045 -0.8955,-1.9999 -2,-1.9999 -1.1046,-0.0001 -2,0.8954 -2,1.9999 -0.0001,1.1046 0.8954,2 1.9999,2 1.1046,0.0001 2,-0.8954 2,-1.9999z"/>
  <path class="fil0 str0" d="M849.436 665.486c0,-1.1046 -0.8955,-2 -2,-2 -1.1046,-0.0001 -2,0.8954 -2,1.9999 -0.0001,1.1046 0.8954,2 1.9999,2 1.1046,0.0001 2,-0.8954 2,-1.9999z"/>
  <line class="fil0 str0" x1="833.936" y1="650.361" x2="697.436" y2= "650.361" />
  <line class="fil0 str0" x1="697.436" y1="666.361" x2="833.936" y2= "666.361" />
  <path class="fil0 str0" d="M697.436 650.361c-2.8581,0 -5.4991,1.5247 -6.9282,4 -1.429,2.4752 -1.429,5.5246 0,7.9998 1.4291,2.4753 4.0701,4 6.9282,4"/>
  <path class="fil0 str0" d="M833.936 650.361c2.1637,0 4.269,-0.7017 5.9999,-2"/>
  <path class="fil0 str0" d="M839.936 668.361c5.1569,3.8677 12.4093,3.1796 16.7468,-1.5889 4.3375,-4.7685 4.3375,-12.0534 0,-16.822 -4.3375,-4.7685 -11.5898,-5.4567 -16.7468,-1.589"/>
  <path class="fil0 str0" d="M839.936 668.361c-1.7309,-1.2983 -3.8362,-2 -5.9999,-2"/>
 </g>
 <g id="_0_1">
  <metadata id="CorelCorpID_2Corel-Layer"/>
  <path class="fil0 str0" d="M466.292 724.219c-2.2091,0 -4,1.7909 -4,4 0,2.2091 1.7909,4 4,4 2.2092,0 4,-1.7908 4,-4 0.0001,-2.2091 -1.7908,-4 -3.9999,-4z"/>
  <path class="fil0 str0" d="M444.292 629.22c-2.2091,0 -4,1.7909 -4,4 0,2.2091 1.7909,4 4,4 2.2092,0 4,-1.7908 4,-4 0.0001,-2.2091 -1.7908,-4 -3.9999,-4z"/>
  <path class="fil0 str0" d="M444.292 724.219c-2.2091,0 -4,1.7909 -4,4 0,2.2091 1.7909,4 4,4 2.2092,0 4,-1.7908 4,-4 0.0001,-2.2091 -1.7908,-4 -3.9999,-4z"/>
  <path class="fil0 str0" d="M466.292 629.22c-2.2091,0 -4,1.7909 -4,4 0,2.2091 1.7909,4 4,4 2.2092,0 4,-1.7908 4,-4 0.0001,-2.2091 -1.7908,-4 -3.9999,-4z"/>
  <path class="fil0 str0" d="M526.292 680.418c-1.215,0 -2.2,0.9849 -2.2,2.1999 0,1.215 0.985,2.2 2.2,2.2 1.2151,0 2.2,-0.985 2.2,-2.2 0.0001,-1.215 -0.9849,-2.1999 -2.1999,-2.1999z"/>
  <path class="fil0 str0" d="M526.292 632.418c-1.215,0 -2.2,0.985 -2.2,2.2 0,1.215 0.985,2.2 2.2,2.2 1.2151,0 2.2,-0.985 2.2,-2.2 0.0001,-1.215 -0.9849,-2.2 -2.1999,-2.2z"/>
  <path class="fil0 str0" d="M596.467 671.48c-2.2092,0 -4,1.7909 -4,4 0,2.2091 1.7908,4 3.9999,4 2.2092,0 4,-1.7909 4.0001,-4 0,-2.2091 -1.7909,-4 -4,-4z"/>
  <path class="fil0 str0" d="M521.292 716.118c-2.2091,0 -4,1.7908 -4,4 0,2.2091 1.7909,4 4,4 2.2091,0 3.9999,-1.7909 3.9999,-4 0.0001,-2.2091 -1.7908,-4 -3.9998,-4z"/>
  <path class="fil0 str0" d="M596.467 688.756c-2.2092,0 -4,1.7908 -4,4 0,2.2091 1.7908,4 3.9999,4 2.2092,0 4,-1.7909 4.0001,-4 0,-2.2091 -1.7909,-4 -4,-4z"/>
  <path class="fil0 str0" d="M516.292 632.418c-1.215,0 -2.2,0.985 -2.2,2.2 0,1.215 0.985,2.2 2.2,2.2 1.2151,0 2.2,-0.985 2.2,-2.2 0.0001,-1.215 -0.9849,-2.2 -2.1999,-2.2z"/>
  <path class="fil0 str0" d="M516.292 680.418c-1.215,0 -2.2,0.9849 -2.2,2.1999 0,1.215 0.985,2.2 2.2,2.2 1.2151,0 2.2,-0.985 2.2,-2.2 0.0001,-1.215 -0.9849,-2.1999 -2.1999,-2.1999z"/>
  <line class="fil0 str0" x1="436.292" y1="632.618" x2="436.292" y2= "728.219" />
  <line class="fil0 str0" x1="526.292" y1="624.618" x2="444.292" y2= "624.618" />
  <line class="fil0 str0" x1="536.292" y1="635.934" x2="536.292" y2= "634.618" />
  <line class="fil0 str0" x1="599.887" y1="666.083" x2="542.871" y2= "645.331" />
  <line class="fil0 str0" x1="606.467" y1="692.756" x2="606.467" y2= "675.48" />
  <line class="fil0 str0" x1="507.617" y1="735.737" x2="599.887" y2= "702.153" />
  <line class="fil0 str0" x1="444.292" y1="736.219" x2="504.881" y2= "736.219" />
  <line class="fil0 str0" x1="520.542" y1="686.118" x2="522.042" y2= "686.118" />
  <line class="fil0 str0" x1="522.042" y1="686.118" x2="522.042" y2= "679.118" />
  <line class="fil0 str0" x1="522.042" y1="679.118" x2="531.292" y2= "679.118" />
  <line class="fil0 str0" x1="531.292" y1="679.118" x2="531.292" y2= "638.118" />
  <line class="fil0 str0" x1="531.292" y1="638.118" x2="522.042" y2= "638.118" />
  <line class="fil0 str0" x1="522.042" y1="638.118" x2="522.042" y2= "631.118" />
  <line class="fil0 str0" x1="522.042" y1="631.118" x2="520.542" y2= "631.118" />
  <line class="fil0 str0" x1="520.542" y1="631.118" x2="520.542" y2= "638.118" />
  <line class="fil0 str0" x1="520.542" y1="638.118" x2="511.292" y2= "638.118" />
  <line class="fil0 str0" x1="511.292" y1="638.118" x2="511.292" y2= "679.118" />
  <line class="fil0 str0" x1="511.292" y1="679.118" x2="520.542" y2= "679.118" />
  <line class="fil0 str0" x1="520.542" y1="679.118" x2="520.542" y2= "686.118" />
  <path class="fil0 str0" d="M436.292 728.219c0,2.1217 0.8429,4.1566 2.3432,5.6569 1.5003,1.5003 3.5351,2.3431 5.6568,2.3431"/>
  <path class="fil0 str0" d="M444.292 624.618c-2.1217,0 -4.1565,0.8428 -5.6568,2.3431 -1.5003,1.5003 -2.3432,3.5352 -2.3432,5.6569"/>
  <path class="fil0 str0" d="M536.292 634.618c0,-5.5228 -4.4771,-10 -9.9999,-10"/>
  <path class="fil0 str0" d="M536.292 635.934c0,4.204 2.6294,7.9591 6.5798,9.3969"/>
  <path class="fil0 str0" d="M606.467 675.48c0,-4.204 -2.6294,-7.9591 -6.5798,-9.3969"/>
  <path class="fil0 str0" d="M599.887 702.153c3.9504,-1.4378 6.5798,-5.1929 6.5798,-9.3969"/>
  <path class="fil0 str0" d="M504.881 736.219c0.9332,0 1.8593,-0.1633 2.7362,-0.4824"/>
 </g>
 <g id="_0_2">
  <metadata id="CorelCorpID_3Corel-Layer"/>
  <path class="fil0 str0" d="M733.868 685.675c-2.2091,0 -3.9999,1.7909 -4,4 0,2.2091 1.7909,3.9999 4,3.9999 2.2092,0.0001 4,-1.7908 4,-3.9999 0.0001,-2.2091 -1.7908,-3.9999 -3.9999,-3.9999z"/>
  <path class="fil0 str0" d="M653.868 686.175c-1.9329,0 -3.4999,1.5671 -3.5,3.5 0,1.9329 1.567,3.4999 3.5,3.4999 1.933,0.0001 3.5,-1.5669 3.5,-3.4999 0.0001,-1.9329 -1.5669,-3.4999 -3.4999,-3.4999z"/>
  <line class="fil0 str0" x1="733.868" y1="679.675" x2="690.529" y2= "679.675" />
  <line class="fil0 str0" x1="690.529" y1="699.675" x2="733.868" y2= "699.675" />
  <path class="fil0 str0" d="M733.868 699.675c5.5229,0 10,-4.4771 10,-9.9999 0.0001,-5.5228 -4.4771,-9.9999 -9.9999,-9.9999"/>
  <path class="fil0 str0" d="M685.642 700.287c1.5873,0.2063 3.1979,0.1465 4.7655,-0.1769"/>
  <path class="fil0 str0" d="M685.029 701.969c0.219,-0.555 0.4231,-1.1159 0.6121,-1.6818"/>
  <path class="fil0 str0" d="M688.566 705.168c-0.9929,-1.2554 -2.1883,-2.3364 -3.5368,-3.1987"/>
  <path class="fil0 str0" d="M688.04 706.297c0.1816,-0.3734 0.3571,-0.7498 0.5264,-1.129"/>
  <path class="fil0 str0" d="M683.316 705.643c1.5274,0.4788 3.1238,0.6996 4.7238,0.6533"/>
  <path class="fil0 str0" d="M682.421 707.193c0.3121,-0.5086 0.6105,-1.0255 0.8949,-1.55"/>
  <path class="fil0 str0" d="M685.349 710.957c-0.7599,-1.4087 -1.7494,-2.6809 -2.9277,-3.7642"/>
  <path class="fil0 str0" d="M684.634 711.978c0.2437,-0.3362 0.4819,-0.6764 0.7145,-1.0204"/>
  <path class="fil0 str0" d="M680.096 710.514c1.421,0.7367 2.9549,1.2314 4.5386,1.4636"/>
  <path class="fil0 str0" d="M678.946 711.885c0.3956,-0.4467 0.7792,-0.9038 1.1503,-1.371"/>
  <path class="fil0 str0" d="M681.175 716.101c-0.5037,-1.5193 -1.2572,-2.944 -2.2294,-4.2155"/>
  <path class="fil0 str0" d="M680.294 716.982c0.2984,-0.2888 0.592,-0.5824 0.8808,-0.8808"/>
  <path class="fil0 str0" d="M676.079 714.752c1.2715,0.9723 2.6962,1.7258 4.2154,2.2295"/>
  <path class="fil0 str0" d="M674.708 715.903c0.4672,-0.3712 0.9243,-0.7548 1.371,-1.1504"/>
  <path class="fil0 str0" d="M676.171 720.441c-0.2322,-1.5837 -0.7269,-3.1176 -1.4636,-4.5386"/>
  <path class="fil0 str0" d="M675.151 721.156c0.344,-0.2326 0.6842,-0.4708 1.0204,-0.7145"/>
  <path class="fil0 str0" d="M671.387 718.228c1.0833,1.1783 2.3555,2.1678 3.7642,2.9277"/>
  <path class="fil0 str0" d="M669.837 719.123c0.5245,-0.2844 1.0414,-0.5828 1.55,-0.8949"/>
  <path class="fil0 str0" d="M670.49 723.847c0.0463,-1.6 -0.1745,-3.1964 -0.6533,-4.7238"/>
  <path class="fil0 str0" d="M669.361 724.373c0.3792,-0.1693 0.7556,-0.3448 1.129,-0.5264"/>
  <path class="fil0 str0" d="M666.162 720.836c0.8623,1.3485 1.9433,2.5439 3.1987,3.5368"/>
  <path class="fil0 str0" d="M664.481 721.448c0.5659,-0.189 1.1268,-0.3931 1.6818,-0.6121"/>
  <path class="fil0 str0" d="M664.304 726.214c0.3234,-1.5676 0.3832,-3.1782 0.1769,-4.7655"/>
  <path class="fil0 str0" d="M663.1 726.536c0.4028,-0.1009 0.804,-0.2084 1.2033,-0.3224"/>
  <path class="fil0 str0" d="M660.564 722.498c0.615,1.4777 1.472,2.8426 2.5359,4.0385"/>
  <path class="fil0 str0" d="M658.802 722.808c0.5902,-0.0878 1.178,-0.1915 1.7626,-0.3107"/>
  <path class="fil0 str0" d="M657.8 727.471c0.5907,-1.4877 0.9293,-3.0634 1.0017,-4.6624"/>
  <path class="fil0 str0" d="M656.559 727.579c0.4143,-0.0294 0.828,-0.0656 1.241,-0.1085"/>
  <path class="fil0 str0" d="M654.763 723.162c0.3491,1.5621 0.9561,3.0551 1.7961,4.4175"/>
  <path class="fil0 str0" d="M652.973 723.162c0.5964,0.0159 1.1933,0.0159 1.7897,0"/>
  <path class="fil0 str0" d="M651.177 727.579c0.84,-1.3624 1.447,-2.8554 1.7961,-4.4175"/>
  <path class="fil0 str0" d="M649.936 727.471c0.413,0.0429 0.8267,0.0791 1.241,0.1085"/>
  <path class="fil0 str0" d="M648.934 722.808c0.0724,1.599 0.411,3.1747 1.0017,4.6624"/>
  <path class="fil0 str0" d="M647.172 722.498c0.5846,0.1192 1.1724,0.2229 1.7626,0.3107"/>
  <path class="fil0 str0" d="M644.636 726.536c1.0639,-1.1959 1.9209,-2.5608 2.5359,-4.0385"/>
  <path class="fil0 str0" d="M643.433 726.214c0.3993,0.114 0.8005,0.2215 1.2033,0.3224"/>
  <path class="fil0 str0" d="M643.256 721.448c-0.2063,1.5873 -0.1465,3.1979 0.1769,4.7655"/>
  <path class="fil0 str0" d="M641.574 720.836c0.555,0.219 1.1159,0.4231 1.6818,0.6121"/>
  <path class="fil0 str0" d="M638.375 724.373c1.2554,-0.9929 2.3364,-2.1883 3.1987,-3.5368"/>
  <path class="fil0 str0" d="M637.246 723.847c0.3734,0.1816 0.7498,0.3571 1.129,0.5264"/>
  <path class="fil0 str0" d="M637.9 719.123c-0.4788,1.5274 -0.6996,3.1238 -0.6533,4.7238"/>
  <path class="fil0 str0" d="M636.35 718.228c0.5086,0.3121 1.0255,0.6105 1.55,0.8949"/>
  <path class="fil0 str0" d="M632.585 721.156c1.4087,-0.7599 2.6809,-1.7494 3.7642,-2.9277"/>
  <path class="fil0 str0" d="M631.565 720.441c0.3362,0.2437 0.6764,0.4819 1.0204,0.7145"/>
  <path class="fil0 str0" d="M633.029 715.903c-0.7367,1.421 -1.2314,2.9549 -1.4636,4.5386"/>
  <path class="fil0 str0" d="M631.658 714.752c0.4467,0.3956 0.9038,0.7792 1.371,1.1504"/>
  <path class="fil0 str0" d="M627.442 716.982c1.5193,-0.5037 2.944,-1.2572 4.2155,-2.2295"/>
  <path class="fil0 str0" d="M626.561 716.101c0.2888,0.2984 0.5824,0.592 0.8808,0.8808"/>
  <path class="fil0 str0" d="M628.791 711.885c-0.9723,1.2715 -1.7258,2.6962 -2.2295,4.2155"/>
  <path class="fil0 str0" d="M627.64 710.514c0.3712,0.4672 0.7548,0.9243 1.1504,1.371"/>
  <path class="fil0 str0" d="M623.102 711.978c1.5837,-0.2322 3.1176,-0.7269 4.5386,-1.4636"/>
  <path class="fil0 str0" d="M622.387 710.957c0.2326,0.344 0.4708,0.6842 0.7145,1.0204"/>
  <path class="fil0 str0" d="M625.315 707.193c-1.1783,1.0833 -2.1678,2.3555 -2.9277,3.7642"/>
  <path class="fil0 str0" d="M624.42 705.643c0.2844,0.5245 0.5828,1.0414 0.8949,1.55"/>
  <path class="fil0 str0" d="M619.696 706.297c1.6,0.0463 3.1964,-0.1745 4.7238,-0.6533"/>
  <path class="fil0 str0" d="M619.17 705.168c0.1693,0.3792 0.3448,0.7556 0.5264,1.129"/>
  <path class="fil0 str0" d="M622.707 701.969c-1.3485,0.8623 -2.5439,1.9433 -3.5368,3.1987"/>
  <path class="fil0 str0" d="M622.095 700.287c0.1891,0.5659 0.3932,1.1268 0.6122,1.6818"/>
  <path class="fil0 str0" d="M617.329 700.11c1.5676,0.3234 3.1782,0.3832 4.7654,0.1769"/>
  <path class="fil0 str0" d="M617.007 698.907c0.1009,0.4028 0.2084,0.804 0.3224,1.2033"/>
  <path class="fil0 str0" d="M621.045 696.371c-1.4777,0.615 -2.8426,1.472 -4.0385,2.5359"/>
  <path class="fil0 str0" d="M620.735 694.608c0.0878,0.5902 0.1915,1.178 0.3107,1.7626"/>
  <path class="fil0 str0" d="M616.072 693.607c1.4877,0.5907 3.0634,0.9293 4.6624,1.0017"/>
  <path class="fil0 str0" d="M615.964 692.366c0.0294,0.4143 0.0656,0.828 0.1085,1.241"/>
  <path class="fil0 str0" d="M620.381 690.57c-1.5621,0.3491 -3.0551,0.9561 -4.4175,1.7961"/>
  <path class="fil0 str0" d="M620.381 688.78c-0.0159,0.5964 -0.0159,1.1932 0,1.7896"/>
  <path class="fil0 str0" d="M615.964 686.984c1.3624,0.84 2.8554,1.447 4.4175,1.7961"/>
  <path class="fil0 str0" d="M616.072 685.743c-0.0429,0.413 -0.0791,0.8267 -0.1085,1.241"/>
  <path class="fil0 str0" d="M620.735 684.741c-1.599,0.0724 -3.1747,0.411 -4.6624,1.0017"/>
  <path class="fil0 str0" d="M621.045 682.979c-0.1192,0.5846 -0.2229,1.1724 -0.3107,1.7626"/>
  <path class="fil0 str0" d="M617.007 680.443c1.1959,1.0639 2.5608,1.9209 4.0385,2.5359"/>
  <path class="fil0 str0" d="M617.329 679.239c-0.114,0.3993 -0.2215,0.8005 -0.3224,1.2033"/>
  <path class="fil0 str0" d="M622.095 679.063c-1.5872,-0.2063 -3.1977,-0.1465 -4.7653,0.1769"/>
  <path class="fil0 str0" d="M622.707 677.381c-0.219,0.555 -0.4231,1.1159 -0.6122,1.6818"/>
  <path class="fil0 str0" d="M619.17 674.182c0.9929,1.2554 2.1883,2.3364 3.5368,3.1987"/>
  <path class="fil0 str0" d="M619.696 673.053c-0.1816,0.3734 -0.3571,0.7498 -0.5264,1.129"/>
  <path class="fil0 str0" d="M624.42 673.706c-1.5273,-0.4788 -3.1238,-0.6996 -4.7237,-0.6533"/>
  <path class="fil0 str0" d="M625.315 672.156c-0.3121,0.5086 -0.6105,1.0255 -0.8949,1.55"/>
  <path class="fil0 str0" d="M622.387 668.392c0.7599,1.4087 1.7494,2.6809 2.9277,3.7642"/>
  <path class="fil0 str0" d="M623.102 667.372c-0.2437,0.3362 -0.4819,0.6764 -0.7145,1.0204"/>
  <path class="fil0 str0" d="M627.64 668.835c-1.421,-0.7367 -2.9549,-1.2314 -4.5386,-1.4636"/>
  <path class="fil0 str0" d="M628.791 667.464c-0.3956,0.4467 -0.7792,0.9038 -1.1504,1.371"/>
  <path class="fil0 str0" d="M626.561 663.249c0.5037,1.5193 1.2572,2.944 2.2295,4.2155"/>
  <path class="fil0 str0" d="M627.442 662.368c-0.2984,0.2888 -0.592,0.5824 -0.8808,0.8808"/>
  <path class="fil0 str0" d="M631.658 664.597c-1.2715,-0.9723 -2.6962,-1.7258 -4.2155,-2.2295"/>
  <path class="fil0 str0" d="M633.029 663.447c-0.4672,0.3712 -0.9243,0.7548 -1.371,1.1504"/>
  <path class="fil0 str0" d="M631.565 658.909c0.2322,1.5837 0.7269,3.1176 1.4636,4.5386"/>
  <path class="fil0 str0" d="M632.585 658.194c-0.344,0.2326 -0.6842,0.4708 -1.0204,0.7145"/>
  <path class="fil0 str0" d="M636.35 661.122c-1.0833,-1.1783 -2.3555,-2.1678 -3.7642,-2.9277"/>
  <path class="fil0 str0" d="M637.9 660.227c-0.5245,0.2844 -1.0414,0.5828 -1.55,0.8949"/>
  <path class="fil0 str0" d="M637.246 655.503c-0.0463,1.6 0.1745,3.1964 0.6533,4.7238"/>
  <path class="fil0 str0" d="M638.375 654.977c-0.3792,0.1693 -0.7556,0.3448 -1.129,0.5264"/>
  <path class="fil0 str0" d="M641.574 658.513c-0.8623,-1.3485 -1.9433,-2.5439 -3.1987,-3.5368"/>
  <path class="fil0 str0" d="M643.256 657.901c-0.5659,0.189 -1.1268,0.3931 -1.6818,0.6121"/>
  <path class="fil0 str0" d="M643.433 653.136c-0.3234,1.5676 -0.3832,3.1782 -0.1769,4.7655"/>
  <path class="fil0 str0" d="M644.636 652.813c-0.4028,0.1009 -0.804,0.2084 -1.2033,0.3224"/>
  <path class="fil0 str0" d="M647.172 656.852c-0.615,-1.4777 -1.472,-2.8426 -2.5359,-4.0385"/>
  <path class="fil0 str0" d="M648.934 656.541c-0.5902,0.0878 -1.178,0.1915 -1.7626,0.3107"/>
  <path class="fil0 str0" d="M649.936 651.879c-0.5907,1.4877 -0.9293,3.0634 -1.0017,4.6624"/>
  <path class="fil0 str0" d="M651.177 651.77c-0.4143,0.0294 -0.828,0.0656 -1.241,0.1085"/>
  <path class="fil0 str0" d="M652.973 656.188c-0.3491,-1.5621 -0.9561,-3.0551 -1.7961,-4.4175"/>
  <path class="fil0 str0" d="M654.763 656.188c-0.5964,-0.0159 -1.1931,-0.0159 -1.7896,0"/>
  <path class="fil0 str0" d="M656.559 651.77c-0.84,1.3624 -1.447,2.8554 -1.7961,4.4175"/>
  <path class="fil0 str0" d="M657.8 651.879c-0.413,-0.0429 -0.8267,-0.0791 -1.241,-0.1085"/>
  <path class="fil0 str0" d="M658.802 656.541c-0.0724,-1.599 -0.411,-3.1747 -1.0017,-4.6624"/>
  <path class="fil0 str0" d="M660.564 656.852c-0.5846,-0.1192 -1.1724,-0.2229 -1.7626,-0.3107"/>
  <path class="fil0 str0" d="M663.1 652.813c-1.0639,1.1959 -1.9209,2.5608 -2.5359,4.0385"/>
  <path class="fil0 str0" d="M664.304 653.136c-0.3993,-0.114 -0.8005,-0.2215 -1.2033,-0.3224"/>
  <path class="fil0 str0" d="M664.481 657.901c0.2063,-1.5873 0.1465,-3.1979 -0.1769,-4.7655"/>
  <path class="fil0 str0" d="M666.162 658.513c-0.555,-0.219 -1.1159,-0.4231 -1.6818,-0.6121"/>
  <path class="fil0 str0" d="M669.361 654.977c-1.2554,0.9929 -2.3364,2.1883 -3.1987,3.5368"/>
  <path class="fil0 str0" d="M670.49 655.503c-0.3734,-0.1816 -0.7498,-0.3571 -1.129,-0.5264"/>
  <path class="fil0 str0" d="M669.837 660.227c0.4788,-1.5274 0.6996,-3.1238 0.6533,-4.7238"/>
  <path class="fil0 str0" d="M671.387 661.122c-0.5086,-0.3121 -1.0255,-0.6105 -1.55,-0.8949"/>
  <path class="fil0 str0" d="M675.151 658.194c-1.4087,0.7599 -2.6809,1.7494 -3.7642,2.9277"/>
  <path class="fil0 str0" d="M676.171 658.909c-0.3362,-0.2437 -0.6764,-0.4819 -1.0204,-0.7145"/>
  <path class="fil0 str0" d="M674.708 663.447c0.7367,-1.421 1.2314,-2.9549 1.4636,-4.5386"/>
  <path class="fil0 str0" d="M676.079 664.597c-0.4467,-0.3956 -0.9038,-0.7792 -1.371,-1.1504"/>
  <path class="fil0 str0" d="M680.294 662.368c-1.5192,0.5037 -2.9439,1.2572 -4.2154,2.2295"/>
  <path class="fil0 str0" d="M681.175 663.249c-0.2888,-0.2984 -0.5824,-0.592 -0.8808,-0.8808"/>
  <path class="fil0 str0" d="M678.946 667.464c0.9722,-1.2715 1.7257,-2.6962 2.2294,-4.2155"/>
  <path class="fil0 str0" d="M680.096 668.835c-0.3711,-0.4672 -0.7547,-0.9243 -1.1503,-1.371"/>
  <path class="fil0 str0" d="M684.634 667.372c-1.5837,0.2322 -3.1176,0.7269 -4.5386,1.4636"/>
  <path class="fil0 str0" d="M685.349 668.392c-0.2326,-0.344 -0.4708,-0.6842 -0.7145,-1.0204"/>
  <path class="fil0 str0" d="M682.421 672.156c1.1783,-1.0833 2.1678,-2.3555 2.9277,-3.7642"/>
  <path class="fil0 str0" d="M683.316 673.706c-0.2844,-0.5245 -0.5828,-1.0414 -0.8949,-1.55"/>
  <path class="fil0 str0" d="M688.04 673.053c-1.5999,-0.0463 -3.1964,0.1745 -4.7237,0.6533"/>
  <path class="fil0 str0" d="M688.566 674.182c-0.1693,-0.3792 -0.3448,-0.7556 -0.5264,-1.129"/>
  <path class="fil0 str0" d="M685.029 677.381c1.3485,-0.8623 2.5439,-1.9433 3.5368,-3.1987"/>
  <path class="fil0 str0" d="M685.642 679.063c-0.189,-0.5659 -0.3931,-1.1268 -0.6121,-1.6818"/>
  <path class="fil0 str0" d="M690.407 679.239c-1.5676,-0.3234 -3.1781,-0.3832 -4.7654,-0.1769"/>
  <path class="fil0 str0" d="M690.407 700.11c0.0414,-0.1449 0.0819,-0.2901 0.1216,-0.4354"/>
  <path class="fil0 str0" d="M690.529 679.675c-0.0397,-0.1453 -0.0802,-0.2905 -0.1216,-0.4354"/>
 </g>
 <g id="_0_3">
  <metadata id="CorelCorpID_4Corel-Layer"/>
  <path class="fil0 str0" d="M525.753 389.915c0,-1.9329 -1.5671,-3.4999 -3.5,-3.5 -1.9329,0 -3.4999,1.567 -3.4999,3.5 -0.0001,1.933 1.5669,3.5 3.4999,3.5 1.9329,0.0001 3.4999,-1.5669 3.4999,-3.4999z"/>
  <path class="fil0 str0" d="M524.874 397.013c0,-1.1045 -0.8954,-2 -2,-2 -1.1044,0 -1.9999,0.8955 -1.9999,2 0,1.1046 0.8955,2 1.9999,2 1.1046,0 2,-0.8954 2,-2z"/>
  <path class="fil0 str0" d="M517.155 390.536c0,-1.1045 -0.8955,-2 -2,-2 -1.1046,0 -2,0.8955 -2,2 0,1.1046 0.8954,2 2,2 1.1045,0 2,-0.8954 2,-2z"/>
  <path class="fil0 str0" d="M523.632 382.817c0,-1.1046 -0.8955,-2 -1.9999,-2 -1.1046,0 -2,0.8954 -2,2 0,1.1045 0.8954,2 2,2 1.1044,0 1.9999,-0.8955 1.9999,-2z"/>
  <path class="fil0 str0" d="M531.351 389.294c0,-1.1046 -0.8954,-2 -2,-2 -1.1045,0 -2,0.8954 -2,2 0,1.1045 0.8955,2 2,2 1.1046,0 2,-0.8955 2,-2z"/>
  <path class="fil0 str0" d="M533.252 469.915c0,-2.2091 -1.7908,-3.9999 -4,-4 -2.2091,0 -4,1.7909 -4,4 0,2.2092 1.7909,4 4,4 2.2092,0.0001 4,-1.7908 4,-3.9999z"/>
  <line class="fil0 str0" x1="539.214" y1="469.043" x2="535.086" y2= "421.861" />
  <line class="fil0 str0" x1="515.162" y1="423.604" x2="519.29" y2= "470.786" />
  <path class="fil0 str0" d="M511.817 426.454c0.3993,0.114 0.8005,0.2215 1.2033,0.3224"/>
  <path class="fil0 str0" d="M511.64 421.688c-0.2063,1.5873 -0.1465,3.1979 0.1769,4.7655"/>
  <path class="fil0 str0" d="M509.959 421.076c0.555,0.219 1.1159,0.4231 1.6818,0.6121"/>
  <path class="fil0 str0" d="M506.76 424.613c1.2554,-0.9929 2.3364,-2.1883 3.1987,-3.5368"/>
  <path class="fil0 str0" d="M505.631 424.087c0.3734,0.1816 0.7498,0.3571 1.129,0.5264"/>
  <path class="fil0 str0" d="M506.284 419.363c-0.4788,1.5274 -0.6996,3.1238 -0.6533,4.7238"/>
  <path class="fil0 str0" d="M504.734 418.468c0.5086,0.3121 1.0255,0.6105 1.55,0.8949"/>
  <path class="fil0 str0" d="M500.97 421.396c1.4087,-0.7599 2.6809,-1.7494 3.7642,-2.9277"/>
  <path class="fil0 str0" d="M499.95 420.681c0.3362,0.2437 0.6764,0.4819 1.0204,0.7145"/>
  <path class="fil0 str0" d="M501.413 416.142c-0.7367,1.421 -1.2314,2.9549 -1.4636,4.5386"/>
  <path class="fil0 str0" d="M500.042 414.992c0.4467,0.3956 0.9038,0.7792 1.371,1.1503"/>
  <path class="fil0 str0" d="M495.827 417.222c1.5193,-0.5037 2.944,-1.2572 4.2155,-2.2294"/>
  <path class="fil0 str0" d="M494.946 416.341c0.2888,0.2984 0.5824,0.592 0.8808,0.8808"/>
  <path class="fil0 str0" d="M497.176 412.125c-0.9723,1.2715 -1.7258,2.6962 -2.2295,4.2154"/>
  <path class="fil0 str0" d="M496.025 410.754c0.3712,0.4672 0.7548,0.9243 1.1504,1.371"/>
  <path class="fil0 str0" d="M491.486 412.218c1.5837,-0.2322 3.1176,-0.7269 4.5386,-1.4636"/>
  <path class="fil0 str0" d="M490.772 411.198c0.2326,0.344 0.4708,0.6842 0.7145,1.0204"/>
  <path class="fil0 str0" d="M493.7 407.433c-1.1783,1.0833 -2.1678,2.3555 -2.9277,3.7642"/>
  <path class="fil0 str0" d="M492.805 405.883c0.2844,0.5245 0.5828,1.0414 0.8949,1.55"/>
  <path class="fil0 str0" d="M488.081 406.537c1.6,0.0463 3.1964,-0.1745 4.7238,-0.6533"/>
  <path class="fil0 str0" d="M487.555 405.408c0.1693,0.3792 0.3448,0.7556 0.5264,1.129"/>
  <path class="fil0 str0" d="M491.091 402.209c-1.3485,0.8623 -2.5439,1.9433 -3.5368,3.1987"/>
  <path class="fil0 str0" d="M490.479 400.527c0.189,0.5659 0.3931,1.1268 0.6121,1.6818"/>
  <path class="fil0 str0" d="M485.714 400.35c1.5676,0.3234 3.1782,0.3832 4.7655,0.1769"/>
  <path class="fil0 str0" d="M485.391 399.147c0.1009,0.4028 0.2084,0.804 0.3224,1.2033"/>
  <path class="fil0 str0" d="M489.43 396.611c-1.4777,0.615 -2.8426,1.472 -4.0385,2.5359"/>
  <path class="fil0 str0" d="M489.119 394.849c0.0878,0.5902 0.1915,1.178 0.3107,1.7626"/>
  <path class="fil0 str0" d="M484.457 393.847c1.4877,0.5907 3.0634,0.9293 4.6624,1.0017"/>
  <path class="fil0 str0" d="M484.348 392.606c0.0294,0.4143 0.0656,0.828 0.1085,1.241"/>
  <path class="fil0 str0" d="M488.766 390.81c-1.5621,0.3491 -3.0551,0.9561 -4.4175,1.7961"/>
  <path class="fil0 str0" d="M488.766 389.02c-0.0159,0.5964 -0.0159,1.1933 0,1.7897"/>
  <path class="fil0 str0" d="M484.348 387.224c1.3624,0.84 2.8554,1.447 4.4175,1.7961"/>
  <path class="fil0 str0" d="M484.457 385.983c-0.0429,0.413 -0.0791,0.8267 -0.1085,1.241"/>
  <path class="fil0 str0" d="M489.119 384.981c-1.599,0.0724 -3.1747,0.411 -4.6624,1.0017"/>
  <path class="fil0 str0" d="M489.43 383.219c-0.1192,0.5846 -0.2229,1.1724 -0.3107,1.7626"/>
  <path class="fil0 str0" d="M485.391 380.683c1.1959,1.0639 2.5608,1.9209 4.0385,2.5359"/>
  <path class="fil0 str0" d="M485.714 379.479c-0.114,0.3993 -0.2215,0.8005 -0.3224,1.2033"/>
  <path class="fil0 str0" d="M490.479 379.303c-1.5873,-0.2063 -3.1979,-0.1465 -4.7655,0.1769"/>
  <path class="fil0 str0" d="M491.091 377.621c-0.219,0.555 -0.4231,1.1159 -0.6121,1.6818"/>
  <path class="fil0 str0" d="M487.555 374.422c0.9929,1.2554 2.1883,2.3364 3.5368,3.1987"/>
  <path class="fil0 str0" d="M488.081 373.293c-0.1816,0.3734 -0.3571,0.7498 -0.5264,1.129"/>
  <path class="fil0 str0" d="M492.805 373.946c-1.5274,-0.4788 -3.1238,-0.6996 -4.7238,-0.6533"/>
  <path class="fil0 str0" d="M493.7 372.396c-0.3121,0.5086 -0.6105,1.0255 -0.8949,1.55"/>
  <path class="fil0 str0" d="M490.772 368.632c0.7599,1.4087 1.7494,2.6809 2.9277,3.7642"/>
  <path class="fil0 str0" d="M491.486 367.612c-0.2437,0.3362 -0.4819,0.6764 -0.7145,1.0204"/>
  <path class="fil0 str0" d="M496.025 369.075c-1.421,-0.7367 -2.9549,-1.2314 -4.5386,-1.4636"/>
  <path class="fil0 str0" d="M497.176 367.704c-0.3956,0.4467 -0.7792,0.9038 -1.1504,1.371"/>
  <path class="fil0 str0" d="M494.946 363.489c0.5037,1.5193 1.2572,2.944 2.2295,4.2155"/>
  <path class="fil0 str0" d="M495.827 362.608c-0.2984,0.2888 -0.592,0.5824 -0.8808,0.8808"/>
  <path class="fil0 str0" d="M500.042 364.837c-1.2715,-0.9723 -2.6962,-1.7258 -4.2155,-2.2295"/>
  <path class="fil0 str0" d="M501.413 363.687c-0.4672,0.3712 -0.9243,0.7548 -1.371,1.1504"/>
  <path class="fil0 str0" d="M499.95 359.149c0.2322,1.5837 0.7269,3.1176 1.4636,4.5386"/>
  <path class="fil0 str0" d="M500.97 358.434c-0.344,0.2326 -0.6842,0.4708 -1.0204,0.7145"/>
  <path class="fil0 str0" d="M504.734 361.362c-1.0833,-1.1783 -2.3555,-2.1678 -3.7642,-2.9277"/>
  <path class="fil0 str0" d="M506.284 360.467c-0.5245,0.2844 -1.0414,0.5828 -1.55,0.8949"/>
  <path class="fil0 str0" d="M505.631 355.743c-0.0463,1.6 0.1745,3.1964 0.6533,4.7238"/>
  <path class="fil0 str0" d="M506.76 355.217c-0.3792,0.1693 -0.7556,0.3448 -1.129,0.5264"/>
  <path class="fil0 str0" d="M509.959 358.753c-0.8623,-1.3485 -1.9433,-2.5439 -3.1987,-3.5368"/>
  <path class="fil0 str0" d="M511.64 358.141c-0.5659,0.1891 -1.1268,0.3932 -1.6818,0.6122"/>
  <path class="fil0 str0" d="M511.817 353.376c-0.3234,1.5676 -0.3832,3.1782 -0.1769,4.7654"/>
  <path class="fil0 str0" d="M513.021 353.053c-0.4028,0.1009 -0.804,0.2084 -1.2033,0.3224"/>
  <path class="fil0 str0" d="M515.557 357.092c-0.615,-1.4777 -1.472,-2.8426 -2.5359,-4.0385"/>
  <path class="fil0 str0" d="M517.319 356.781c-0.5902,0.0878 -1.178,0.1915 -1.7626,0.3107"/>
  <path class="fil0 str0" d="M518.321 352.119c-0.5907,1.4877 -0.9293,3.0634 -1.0017,4.6624"/>
  <path class="fil0 str0" d="M519.562 352.01c-0.4143,0.0294 -0.828,0.0656 -1.241,0.1085"/>
  <path class="fil0 str0" d="M521.358 356.428c-0.3491,-1.5621 -0.9561,-3.0551 -1.7961,-4.4175"/>
  <path class="fil0 str0" d="M523.148 356.428c-0.5964,-0.0159 -1.1932,-0.0159 -1.7896,0"/>
  <path class="fil0 str0" d="M524.944 352.01c-0.84,1.3624 -1.447,2.8554 -1.7961,4.4175"/>
  <path class="fil0 str0" d="M526.185 352.119c-0.413,-0.0429 -0.8267,-0.0791 -1.241,-0.1085"/>
  <path class="fil0 str0" d="M527.186 356.781c-0.0724,-1.599 -0.411,-3.1747 -1.0017,-4.6624"/>
  <path class="fil0 str0" d="M528.949 357.092c-0.5846,-0.1192 -1.1724,-0.2229 -1.7626,-0.3107"/>
  <path class="fil0 str0" d="M531.485 353.053c-1.0639,1.1959 -1.9209,2.5608 -2.5359,4.0385"/>
  <path class="fil0 str0" d="M532.688 353.376c-0.3993,-0.114 -0.8005,-0.2215 -1.2033,-0.3224"/>
  <path class="fil0 str0" d="M532.865 358.141c0.2063,-1.5872 0.1465,-3.1977 -0.1769,-4.7653"/>
  <path class="fil0 str0" d="M534.547 358.753c-0.555,-0.219 -1.1159,-0.4231 -1.6818,-0.6122"/>
  <path class="fil0 str0" d="M537.746 355.217c-1.2554,0.9929 -2.3364,2.1883 -3.1987,3.5368"/>
  <path class="fil0 str0" d="M538.875 355.743c-0.3734,-0.1816 -0.7498,-0.3571 -1.129,-0.5264"/>
  <path class="fil0 str0" d="M538.221 360.467c0.4788,-1.5273 0.6996,-3.1238 0.6533,-4.7237"/>
  <path class="fil0 str0" d="M539.771 361.362c-0.5086,-0.3121 -1.0255,-0.6105 -1.55,-0.8949"/>
  <path class="fil0 str0" d="M543.535 358.434c-1.4087,0.7599 -2.6809,1.7494 -3.7642,2.9277"/>
  <path class="fil0 str0" d="M544.556 359.149c-0.3362,-0.2437 -0.6764,-0.4819 -1.0204,-0.7145"/>
  <path class="fil0 str0" d="M543.092 363.687c0.7367,-1.421 1.2314,-2.9549 1.4636,-4.5386"/>
  <path class="fil0 str0" d="M544.463 364.837c-0.4467,-0.3956 -0.9038,-0.7792 -1.371,-1.1504"/>
  <path class="fil0 str0" d="M548.679 362.608c-1.5193,0.5037 -2.944,1.2572 -4.2155,2.2295"/>
  <path class="fil0 str0" d="M549.56 363.489c-0.2888,-0.2984 -0.5824,-0.592 -0.8808,-0.8808"/>
  <path class="fil0 str0" d="M547.33 367.704c0.9723,-1.2715 1.7258,-2.6962 2.2295,-4.2155"/>
  <path class="fil0 str0" d="M548.481 369.075c-0.3712,-0.4672 -0.7548,-0.9243 -1.1504,-1.371"/>
  <path class="fil0 str0" d="M553.019 367.612c-1.5837,0.2322 -3.1176,0.7269 -4.5386,1.4636"/>
  <path class="fil0 str0" d="M553.734 368.632c-0.2326,-0.344 -0.4708,-0.6842 -0.7145,-1.0204"/>
  <path class="fil0 str0" d="M550.806 372.396c1.1783,-1.0833 2.1678,-2.3555 2.9277,-3.7642"/>
  <path class="fil0 str0" d="M551.701 373.946c-0.2844,-0.5245 -0.5828,-1.0414 -0.8949,-1.55"/>
  <path class="fil0 str0" d="M556.425 373.293c-1.6,-0.0463 -3.1964,0.1745 -4.7238,0.6533"/>
  <path class="fil0 str0" d="M556.951 374.422c-0.1693,-0.3792 -0.3448,-0.7556 -0.5264,-1.129"/>
  <path class="fil0 str0" d="M553.414 377.621c1.3485,-0.8623 2.5439,-1.9433 3.5368,-3.1987"/>
  <path class="fil0 str0" d="M554.026 379.303c-0.189,-0.5659 -0.3931,-1.1268 -0.6121,-1.6818"/>
  <path class="fil0 str0" d="M558.792 379.479c-1.5676,-0.3234 -3.1782,-0.3832 -4.7655,-0.1769"/>
  <path class="fil0 str0" d="M559.114 380.683c-0.1009,-0.4028 -0.2084,-0.804 -0.3224,-1.2033"/>
  <path class="fil0 str0" d="M555.076 383.219c1.4777,-0.615 2.8426,-1.472 4.0385,-2.5359"/>
  <path class="fil0 str0" d="M555.386 384.981c-0.0878,-0.5902 -0.1915,-1.178 -0.3107,-1.7626"/>
  <path class="fil0 str0" d="M560.049 385.983c-1.4877,-0.5907 -3.0634,-0.9293 -4.6624,-1.0017"/>
  <path class="fil0 str0" d="M560.157 387.224c-0.0294,-0.4143 -0.0656,-0.828 -0.1085,-1.241"/>
  <path class="fil0 str0" d="M555.74 389.02c1.5621,-0.3491 3.0551,-0.9561 4.4175,-1.7961"/>
  <path class="fil0 str0" d="M555.74 390.81c0.0159,-0.5964 0.0159,-1.1931 0,-1.7896"/>
  <path class="fil0 str0" d="M560.157 392.606c-1.3624,-0.84 -2.8554,-1.447 -4.4175,-1.7961"/>
  <path class="fil0 str0" d="M560.049 393.847c0.0429,-0.413 0.0791,-0.8267 0.1085,-1.241"/>
  <path class="fil0 str0" d="M555.386 394.849c1.599,-0.0724 3.1747,-0.411 4.6624,-1.0017"/>
  <path class="fil0 str0" d="M555.076 396.611c0.1192,-0.5846 0.2229,-1.1724 0.3107,-1.7626"/>
  <path class="fil0 str0" d="M559.114 399.147c-1.1959,-1.0639 -2.5608,-1.9209 -4.0385,-2.5359"/>
  <path class="fil0 str0" d="M558.792 400.35c0.114,-0.3993 0.2215,-0.8005 0.3224,-1.2033"/>
  <path class="fil0 str0" d="M554.026 400.527c1.5873,0.2063 3.1979,0.1465 4.7655,-0.1769"/>
  <path class="fil0 str0" d="M553.414 402.209c0.219,-0.555 0.4231,-1.1159 0.6121,-1.6818"/>
  <path class="fil0 str0" d="M556.951 405.408c-0.9929,-1.2554 -2.1883,-2.3364 -3.5368,-3.1987"/>
  <path class="fil0 str0" d="M556.425 406.537c0.1816,-0.3734 0.3571,-0.7498 0.5264,-1.129"/>
  <path class="fil0 str0" d="M551.701 405.883c1.5274,0.4788 3.1238,0.6996 4.7238,0.6533"/>
  <path class="fil0 str0" d="M550.806 407.433c0.3121,-0.5086 0.6105,-1.0255 0.8949,-1.55"/>
  <path class="fil0 str0" d="M553.734 411.198c-0.7599,-1.4087 -1.7494,-2.6809 -2.9277,-3.7642"/>
  <path class="fil0 str0" d="M553.019 412.218c0.2437,-0.3362 0.4819,-0.6764 0.7145,-1.0204"/>
  <path class="fil0 str0" d="M548.481 410.754c1.421,0.7367 2.9549,1.2314 4.5386,1.4636"/>
  <path class="fil0 str0" d="M547.33 412.125c0.3956,-0.4467 0.7792,-0.9038 1.1504,-1.371"/>
  <path class="fil0 str0" d="M549.56 416.341c-0.5037,-1.5192 -1.2572,-2.9439 -2.2295,-4.2154"/>
  <path class="fil0 str0" d="M548.679 417.222c0.2984,-0.2888 0.592,-0.5824 0.8808,-0.8808"/>
  <path class="fil0 str0" d="M544.463 414.992c1.2715,0.9722 2.6962,1.7257 4.2155,2.2294"/>
  <path class="fil0 str0" d="M543.092 416.142c0.4672,-0.3711 0.9243,-0.7547 1.371,-1.1503"/>
  <path class="fil0 str0" d="M544.556 420.681c-0.2322,-1.5837 -0.7269,-3.1176 -1.4636,-4.5386"/>
  <path class="fil0 str0" d="M543.535 421.396c0.344,-0.2326 0.6842,-0.4708 1.0204,-0.7145"/>
  <path class="fil0 str0" d="M539.771 418.468c1.0833,1.1783 2.3555,2.1678 3.7642,2.9277"/>
  <path class="fil0 str0" d="M538.221 419.363c0.5245,-0.2844 1.0414,-0.5828 1.55,-0.8949"/>
  <path class="fil0 str0" d="M538.875 424.087c0.0463,-1.5999 -0.1745,-3.1964 -0.6533,-4.7237"/>
  <path class="fil0 str0" d="M537.746 424.613c0.3792,-0.1693 0.7556,-0.3448 1.129,-0.5264"/>
  <path class="fil0 str0" d="M519.29 470.786c0.4813,5.5018 5.3316,9.5717 10.8334,9.0904 5.5018,-0.4813 9.5717,-5.3316 9.0904,-10.8335"/>
  <path class="fil0 str0" d="M513.021 426.776c0.8518,-0.9575 1.5719,-2.0243 2.1414,-3.1724"/>
  <path class="fil0 str0" d="M535.086 421.861c0.7601,1.0317 1.6546,1.9573 2.6597,2.7523"/>
 </g>
 <g id="_0_4">
  <metadata id="CorelCorpID_5Corel-Layer"/>
  <path class="fil0 str0" d="M612.978 147.373c0,-1.6569 -1.3432,-3 -3,-3 -1.6569,0 -3,1.3431 -3,3 -0.0001,1.6568 1.3431,3 2.9999,3 1.6569,0 3,-1.3431 3,-3z"/>
  <path class="fil0 str0" d="M567.978 173.354c0,-1.6568 -1.3432,-2.9999 -3,-2.9999 -1.6569,-0.0001 -3,1.3431 -3,2.9999 -0.0001,1.6568 1.3431,2.9999 2.9999,2.9999 1.6569,0.0001 3,-1.3431 3,-2.9999z"/>
  <path class="fil0 str0" d="M612.978 199.334c0,-1.6568 -1.3431,-3 -2.9999,-3 -1.6569,0 -3,1.3432 -3,3 -0.0001,1.6569 1.3431,3 2.9999,3 1.6569,0 3,-1.3431 3,-3z"/>
  <path class="fil0 str0" d="M694.978 173.354c0,-55.2284 -44.7715,-99.9999 -99.9999,-99.9999 -55.2283,-0.0001 -99.9999,44.7713 -100,99.9997 -0.0002,55.2283 44.7711,99.9999 99.9996,100 55.2283,0.0003 100,-44.771 100,-99.9994z"/>
  <path class="fil0 str0" d="M627.978 173.354c0,-1.6568 -1.3432,-2.9999 -3,-2.9999 -1.6569,-0.0001 -3,1.3431 -3,2.9999 -0.0001,1.6568 1.3431,2.9999 2.9999,2.9999 1.6569,0.0001 3,-1.3431 3,-2.9999z"/>
  <path class="fil0 str0" d="M582.978 199.334c0,-1.6568 -1.3431,-3 -2.9999,-3 -1.6569,0 -3,1.3432 -3,3 -0.0001,1.6569 1.3431,3 2.9999,3 1.6569,0 3,-1.3431 3,-3z"/>
  <path class="fil0 str0" d="M582.978 147.373c0,-1.6569 -1.3431,-3 -2.9999,-3 -1.6569,0 -3,1.3431 -3,3 -0.0001,1.6568 1.3431,3 2.9999,3 1.6569,0 3,-1.3431 3,-3z"/>
  <line class="fil0 str0" x1="669.978" y1="215.854" x2="669.978" y2= "210.854" />
  <line class="fil0 str0" x1="669.978" y1="210.854" x2="519.978" y2= "210.854" />
  <line class="fil0 str0" x1="519.978" y1="210.854" x2="519.978" y2= "215.854" />
  <line class="fil0 str0" x1="519.978" y1="215.854" x2="669.978" y2= "215.854" />
  <line class="fil0 str0" x1="669.978" y1="135.854" x2="669.978" y2= "130.854" />
  <line class="fil0 str0" x1="669.978" y1="130.854" x2="519.978" y2= "130.854" />
  <line class="fil0 str0" x1="519.978" y1="130.854" x2="519.978" y2= "135.854" />
  <line class="fil0 str0" x1="519.978" y1="135.854" x2="669.978" y2= "135.854" />
 </g>
 <g id="_0_5">
  <metadata id="CorelCorpID_6Corel-Layer"/>
  <path class="fil0 str0" d="M1092.94 77.8803c0,-2.2091 -1.7909,-3.9999 -4,-4 -2.2091,0 -4,1.7909 -4,4 0,2.2092 1.7908,4 4,4 2.2091,0.0001 4,-1.7908 4,-3.9999z"/>
  <path class="fil0 str0" d="M891.129 103.762c0,-2.2092 -1.7908,-4 -4,-4 -2.2091,0 -4,1.7908 -4,3.9999 0,2.2092 1.7909,4 4,4.0001 2.2091,0 4,-1.7909 4,-4z"/>
  <path class="fil0 str0" d="M799.345 108.762c0,-2.2092 -1.7909,-4 -4,-4 -2.2091,0 -4,1.7908 -4,3.9999 0,2.2092 1.7909,4 4,4.0001 2.2091,0 4,-1.7909 4,-4z"/>
  <path class="fil0 str0" d="M704.345 86.7623c0,-2.2092 -1.7909,-4 -4,-4 -2.2091,0 -4,1.7908 -4,3.9999 0,2.2092 1.7909,3.9999 4,4 2.2091,0 4,-1.7908 4,-3.9999z"/>
  <path class="fil0 str0" d="M704.345 108.762c0,-2.2092 -1.7909,-4 -4,-4 -2.2091,0 -4,1.7908 -4,3.9999 0,2.2092 1.7909,4 4,4.0001 2.2091,0 4,-1.7909 4,-4z"/>
  <path class="fil0 str0" d="M799.345 86.7623c0,-2.2092 -1.7909,-4 -4,-4 -2.2091,0 -4,1.7908 -4,3.9999 0,2.2092 1.7909,3.9999 4,4 2.2091,0 4,-1.7908 4,-3.9999z"/>
  <path class="fil0 str0" d="M1044.64 90.8212c0,-2.209 -1.7909,-3.9999 -4,-3.9999 -2.2091,0 -4,1.7909 -4,3.9999 0,2.2091 1.7908,4 4,4 2.2091,0 4,-1.7908 4,-4z"/>
  <path class="fil0 str0" d="M996.344 103.762c0,-2.2092 -1.7909,-4 -4,-4 -2.2091,0 -4,1.7908 -4,3.9999 0,2.2092 1.7909,4 4,4.0001 2.2091,0 4,-1.7909 4,-4z"/>
  <line class="fil0 str0" x1="848.703" y1="118.466" x2="880.771" y2= "127.058" />
  <line class="fil0 str0" x1="700.345" y1="116.762" x2="835.762" y2= "116.762" />
  <line class="fil0 str0" x1="692.345" y1="86.7623" x2="692.345" y2= "108.762" />
  <line class="fil0 str0" x1="979.063" y1="78.7623" x2="700.345" y2= "78.7623" />
  <line class="fil0 str0" x1="1082.24" y1="52.8803" x2="992.004" y2= "77.0585" />
  <line class="fil0 str0" x1="1114.82" y1="108.762" x2="1114.82" y2= "77.8803" />
  <line class="fil0 str0" x1="893.712" y1="128.762" x2="1094.82" y2= "128.762" />
  <path class="fil0 str0" d="M880.771 127.058c4.2207,1.131 8.5714,1.7038 12.9409,1.7038"/>
  <path class="fil0 str0" d="M848.703 118.466c-4.2206,-1.131 -8.5714,-1.7037 -12.9409,-1.7037"/>
  <path class="fil0 str0" d="M692.345 108.762c0,2.1217 0.8429,4.1565 2.3432,5.6568 1.5002,1.5003 3.5351,2.3432 5.6568,2.3432"/>
  <path class="fil0 str0" d="M700.345 78.7623c-2.1217,0 -4.1566,0.8428 -5.6568,2.3431 -1.5003,1.5003 -2.3432,3.5351 -2.3432,5.6569"/>
  <path class="fil0 str0" d="M979.063 78.7623c4.3695,0 8.7202,-0.5728 12.9409,-1.7038"/>
  <path class="fil0 str0" d="M1114.82 77.8803c0,-8.0464 -3.7424,-15.6351 -10.126,-20.5334 -6.3837,-4.8984 -14.6824,-6.5491 -22.4546,-4.4666"/>
  <path class="fil0 str0" d="M1094.82 128.762c11.0456,0 19.9999,-8.9543 20,-19.9999"/>
 </g>
 <g id="_0_6">
  <metadata id="CorelCorpID_7Corel-Layer"/>
  <path class="fil0 str0" d="M1111.28 158.314c0,-2.2091 -1.7909,-3.9999 -4,-4 -2.2091,0 -4,1.7909 -4,4 0,2.2092 1.7908,4 4,4 2.2091,0.0001 4,-1.7908 4,-3.9999z"/>
  <path class="fil0 str0" d="M909.474 184.196c0,-2.2092 -1.7908,-4 -4,-4 -2.2091,0 -4,1.7908 -4,3.9999 0,2.2092 1.7909,4 4,4.0001 2.2091,0 4,-1.7909 4,-4z"/>
  <path class="fil0 str0" d="M817.689 189.196c0,-2.2092 -1.7909,-4 -4,-4 -2.2091,0 -4,1.7908 -4,3.9999 0,2.2092 1.7909,4 4,4.0001 2.2091,0 4,-1.7909 4,-4z"/>
  <path class="fil0 str0" d="M722.689 167.196c0,-2.2092 -1.7909,-4 -4,-4 -2.2091,0 -4,1.7908 -4,3.9999 0,2.2092 1.7909,3.9999 4,4 2.2091,0 4,-1.7908 4,-3.9999z"/>
  <path class="fil0 str0" d="M722.689 189.196c0,-2.2092 -1.7909,-4 -4,-4 -2.2091,0 -4,1.7908 -4,3.9999 0,2.2092 1.7909,4 4,4.0001 2.2091,0 4,-1.7909 4,-4z"/>
  <path class="fil0 str0" d="M817.689 167.196c0,-2.2092 -1.7909,-4 -4,-4 -2.2091,0 -4,1.7908 -4,3.9999 0,2.2092 1.7909,3.9999 4,4 2.2091,0 4,-1.7908 4,-3.9999z"/>
  <path class="fil0 str0" d="M1062.99 171.255c0,-2.209 -1.7909,-3.9999 -4,-3.9999 -2.2091,0 -4,1.7909 -4,3.9999 0,2.2091 1.7908,4 4,4 2.2091,0 4,-1.7908 4,-4z"/>
  <path class="fil0 str0" d="M1014.69 184.196c0,-2.2092 -1.7909,-4 -4,-4 -2.2091,0 -4,1.7908 -4,3.9999 0,2.2092 1.7909,4 4,4.0001 2.2091,0 4,-1.7909 4,-4z"/>
  <line class="fil0 str0" x1="867.047" y1="198.899" x2="899.115" y2= "207.492" />
  <line class="fil0 str0" x1="718.689" y1="197.196" x2="854.106" y2= "197.196" />
  <line class="fil0 str0" x1="710.689" y1="167.196" x2="710.689" y2= "189.196" />
  <line class="fil0 str0" x1="997.408" y1="159.196" x2="718.689" y2= "159.196" />
  <line class="fil0 str0" x1="1100.58" y1="133.314" x2="1010.35" y2= "157.492" />
  <line class="fil0 str0" x1="1133.16" y1="189.196" x2="1133.16" y2= "158.314" />
  <line class="fil0 str0" x1="912.056" y1="209.196" x2="1113.16" y2= "209.196" />
  <path class="fil0 str0" d="M899.115 207.492c4.2207,1.131 8.5714,1.7038 12.9409,1.7038"/>
  <path class="fil0 str0" d="M867.047 198.899c-4.2206,-1.131 -8.5714,-1.7037 -12.9409,-1.7037"/>
  <path class="fil0 str0" d="M710.689 189.196c0,2.1217 0.8429,4.1565 2.3432,5.6568 1.5002,1.5003 3.5351,2.3432 5.6568,2.3432"/>
  <path class="fil0 str0" d="M718.689 159.196c-2.1217,0 -4.1566,0.8428 -5.6568,2.3431 -1.5003,1.5003 -2.3432,3.5351 -2.3432,5.6569"/>
  <path class="fil0 str0" d="M997.408 159.196c4.3695,0 8.7202,-0.5728 12.9409,-1.7038"/>
  <path class="fil0 str0" d="M1133.16 158.314c0,-8.0464 -3.7424,-15.6351 -10.126,-20.5334 -6.3837,-4.8984 -14.6824,-6.5491 -22.4546,-4.4666"/>
  <path class="fil0 str0" d="M1113.16 209.196c11.0456,0 19.9999,-8.9543 20,-19.9999"/>
 </g>
 <g id="_0_7">
  <metadata id="CorelCorpID_8Corel-Layer"/>
  <path class="fil0 str0" d="M941.22 250.565c0,-2.2091 -1.7908,-3.9999 -3.9999,-3.9999 -2.2091,-0.0001 -4,1.7908 -4,3.9999 0,2.2092 1.7909,4 4,4 2.2091,0.0001 3.9999,-1.7908 3.9999,-3.9999z"/>
  <path class="fil0 str0" d="M844.628 276.447c0,-2.2092 -1.7909,-4 -4,-4 -2.2092,0 -4,1.7908 -4,3.9999 0,2.2092 1.7908,4 3.9999,4.0001 2.2092,0 4,-1.7909 4.0001,-4z"/>
  <path class="fil0 str0" d="M1116.22 250.565c0,-2.2091 -1.7908,-3.9999 -4,-3.9999 -2.2091,-0.0001 -4,1.7908 -4,3.9999 0,2.2092 1.7909,4 4,4 2.2092,0.0001 4,-1.7908 4,-3.9999z"/>
  <path class="fil0 str0" d="M744.628 276.447c0,-2.2092 -1.7909,-4 -4,-4 -2.2092,0 -4,1.7908 -4,3.9999 0,2.2092 1.7908,4 3.9999,4.0001 2.2092,0 4,-1.7909 4.0001,-4z"/>
  <path class="fil0 str0" d="M1141.22 560.565c0,-2.2091 -1.7908,-3.9999 -4,-3.9999 -2.2091,-0.0001 -4,1.7908 -4,3.9999 0,2.2092 1.7909,4 4,4 2.2092,0.0001 4,-1.7908 4,-3.9999z"/>
  <path class="fil0 str0" d="M1141.22 600.565c0,-2.2091 -1.7908,-3.9999 -4,-3.9999 -2.2091,-0.0001 -4,1.7908 -4,3.9999 0,2.2092 1.7909,4 4,4 2.2092,0.0001 4,-1.7908 4,-3.9999z"/>
  <path class="fil0 str0" d="M1041.22 560.565c0,-2.2091 -1.7908,-3.9999 -4,-3.9999 -2.2091,-0.0001 -4,1.7908 -4,3.9999 0,2.2092 1.7909,4 4,4 2.2092,0.0001 4,-1.7908 4,-3.9999z"/>
  <path class="fil0 str0" d="M1041.22 600.565c0,-2.2091 -1.7908,-3.9999 -4,-3.9999 -2.2091,-0.0001 -4,1.7908 -4,3.9999 0,2.2092 1.7909,4 4,4 2.2092,0.0001 4,-1.7908 4,-3.9999z"/>
  <path class="fil0 str0" d="M1066.22 290.565c0,-2.2091 -1.7908,-3.9999 -4,-3.9999 -2.2091,-0.0001 -4,1.7908 -4,3.9999 0,2.2092 1.7909,4 4,4 2.2092,0.0001 4,-1.7908 4,-3.9999z"/>
  <path class="fil0 str0" d="M892.924 263.506c0,-2.2091 -1.7909,-4 -4,-4 -2.2092,0 -4,1.7909 -4,4 -0.0001,2.2091 1.7908,4 3.9999,4 2.2092,0 4,-1.7908 4,-4z"/>
  <path class="fil0 str0" d="M1028.72 250.565c0,-2.2091 -1.7908,-3.9999 -4,-3.9999 -2.2091,-0.0001 -4,1.7908 -4,3.9999 0,2.2092 1.7909,4 4,4 2.2092,0.0001 4,-1.7908 4,-3.9999z"/>
  <line class="fil0 str0" x1="1012.22" y1="625.565" x2="1162.22" y2= "625.565" />
  <line class="fil0 str0" x1="1012.22" y1="560.921" x2="1012.22" y2= "625.565" />
  <line class="fil0 str0" x1="1029.9" y1="532.888" x2="1019.54" y2= "543.243" />
  <line class="fil0 str0" x1="1037.22" y1="335.921" x2="1037.22" y2= "515.21" />
  <line class="fil0 str0" x1="994.543" y1="282.888" x2="1029.9" y2= "318.243" />
  <line class="fil0 str0" x1="943.803" y1="275.565" x2="976.865" y2= "275.565" />
  <line class="fil0 str0" x1="847.098" y1="300.595" x2="937.333" y2= "276.417" />
  <line class="fil0 str0" x1="840.628" y1="301.447" x2="740.628" y2= "301.447" />
  <line class="fil0 str0" x1="740.628" y1="251.447" x2="837.337" y2= "251.447" />
  <line class="fil0 str0" x1="930.75" y1="226.417" x2="837.337" y2= "251.447" />
  <line class="fil0 str0" x1="1112.22" y1="225.565" x2="937.22" y2= "225.565" />
  <line class="fil0 str0" x1="1137.22" y1="515.21" x2="1137.22" y2= "250.565" />
  <line class="fil0 str0" x1="1154.9" y1="543.243" x2="1144.54" y2= "532.888" />
  <line class="fil0 str0" x1="1162.22" y1="625.565" x2="1162.22" y2= "560.921" />
  <path class="fil0 str0" d="M1019.54 543.243c-4.6884,4.6884 -7.3224,11.0473 -7.3224,17.6777"/>
  <path class="fil0 str0" d="M1029.9 532.888c4.6884,-4.6884 7.3223,-11.0472 7.3223,-17.6776"/>
  <path class="fil0 str0" d="M1037.22 335.921c0,-6.6304 -2.6339,-12.9893 -7.3223,-17.6777"/>
  <path class="fil0 str0" d="M994.543 282.888c-4.6884,-4.6884 -11.0473,-7.3223 -17.6777,-7.3223"/>
  <path class="fil0 str0" d="M943.803 275.565c-2.1848,0 -4.3602,0.2863 -6.4704,0.8518"/>
  <path class="fil0 str0" d="M840.628 301.447c2.1847,0 4.3601,-0.2864 6.4704,-0.8519"/>
  <path class="fil0 str0" d="M740.628 251.447c-8.9317,0 -17.1849,4.7649 -21.6507,12.5 -4.4658,7.735 -4.4658,17.2649 0,25 4.4658,7.735 12.719,12.5 21.6507,12.5"/>
  <path class="fil0 str0" d="M937.22 225.565c-2.1847,0 -4.3601,0.2863 -6.4704,0.8518"/>
  <path class="fil0 str0" d="M1137.22 250.565c0,-6.6304 -2.6339,-12.9892 -7.3223,-17.6776 -4.6884,-4.6884 -11.0472,-7.3223 -17.6777,-7.3223"/>
  <path class="fil0 str0" d="M1137.22 515.21c0,6.6304 2.634,12.9893 7.3224,17.6777"/>
  <path class="fil0 str0" d="M1162.22 560.921c0,-6.6304 -2.6339,-12.9893 -7.3223,-17.6777"/>
 </g>
 <g id="_0_8">
  <metadata id="CorelCorpID_9Corel-Layer"/>
  <path class="fil0 str0" d="M800.109 347.932c0,-2.2091 -1.7908,-3.9999 -3.9999,-3.9999 -2.2091,-0.0001 -4,1.7908 -4,3.9999 0,2.2092 1.7909,4 4,4 2.2091,0.0001 3.9999,-1.7908 3.9999,-3.9999z"/>
  <path class="fil0 str0" d="M703.517 373.814c0,-2.2092 -1.7909,-4 -4,-4 -2.2092,0 -4,1.7908 -4,3.9999 0,2.2092 1.7908,4 3.9999,4.0001 2.2092,0 4,-1.7909 4.0001,-4z"/>
  <path class="fil0 str0" d="M975.109 347.932c0,-2.2091 -1.7908,-3.9999 -4,-3.9999 -2.2091,-0.0001 -4,1.7908 -4,3.9999 0,2.2092 1.7909,4 4,4 2.2092,0.0001 4,-1.7908 4,-3.9999z"/>
  <path class="fil0 str0" d="M603.517 373.814c0,-2.2092 -1.7909,-4 -4,-4 -2.2092,0 -4,1.7908 -4,3.9999 0,2.2092 1.7908,4 3.9999,4.0001 2.2092,0 4,-1.7909 4.0001,-4z"/>
  <path class="fil0 str0" d="M1000.11 657.932c0,-2.2091 -1.7908,-3.9999 -4,-3.9999 -2.2091,-0.0001 -4,1.7908 -4,3.9999 0,2.2092 1.7909,4 4,4 2.2092,0.0001 4,-1.7908 4,-3.9999z"/>
  <path class="fil0 str0" d="M1000.11 697.932c0,-2.2091 -1.7908,-3.9999 -4,-3.9999 -2.2091,-0.0001 -4,1.7908 -4,3.9999 0,2.2092 1.7909,4 4,4 2.2092,0.0001 4,-1.7908 4,-3.9999z"/>
  <path class="fil0 str0" d="M900.109 657.932c0,-2.2091 -1.7908,-3.9999 -4,-3.9999 -2.2091,-0.0001 -4,1.7908 -4,3.9999 0,2.2092 1.7909,4 4,4 2.2092,0.0001 4,-1.7908 4,-3.9999z"/>
  <path class="fil0 str0" d="M900.109 697.932c0,-2.2091 -1.7908,-3.9999 -4,-3.9999 -2.2091,-0.0001 -4,1.7908 -4,3.9999 0,2.2092 1.7909,4 4,4 2.2092,0.0001 4,-1.7908 4,-3.9999z"/>
  <path class="fil0 str0" d="M925.109 387.932c0,-2.2091 -1.7908,-3.9999 -4,-3.9999 -2.2091,-0.0001 -4,1.7908 -4,3.9999 0,2.2092 1.7909,4 4,4 2.2092,0.0001 4,-1.7908 4,-3.9999z"/>
  <path class="fil0 str0" d="M751.813 360.873c0,-2.2091 -1.7909,-4 -4,-4 -2.2092,0 -4,1.7909 -4,4 -0.0001,2.2091 1.7908,4 3.9999,4 2.2092,0 4,-1.7908 4,-4z"/>
  <path class="fil0 str0" d="M887.609 347.932c0,-2.2091 -1.7908,-3.9999 -4,-3.9999 -2.2091,-0.0001 -4,1.7908 -4,3.9999 0,2.2092 1.7909,4 4,4 2.2092,0.0001 4,-1.7908 4,-3.9999z"/>
  <line class="fil0 str0" x1="871.109" y1="722.932" x2="1021.11" y2= "722.932" />
  <line class="fil0 str0" x1="871.109" y1="658.287" x2="871.109" y2= "722.932" />
  <line class="fil0 str0" x1="888.787" y1="630.254" x2="878.432" y2= "640.61" />
  <line class="fil0 str0" x1="896.109" y1="433.287" x2="896.109" y2= "612.577" />
  <line class="fil0 str0" x1="853.432" y1="380.254" x2="888.787" y2= "415.61" />
  <line class="fil0 str0" x1="802.692" y1="372.932" x2="835.754" y2= "372.932" />
  <line class="fil0 str0" x1="705.987" y1="397.962" x2="796.221" y2= "373.784" />
  <line class="fil0 str0" x1="699.517" y1="398.814" x2="599.517" y2= "398.814" />
  <line class="fil0 str0" x1="599.517" y1="348.814" x2="696.225" y2= "348.814" />
  <line class="fil0 str0" x1="789.639" y1="323.784" x2="696.225" y2= "348.814" />
  <line class="fil0 str0" x1="971.109" y1="322.932" x2="796.109" y2= "322.932" />
  <line class="fil0 str0" x1="996.109" y1="612.577" x2="996.109" y2= "347.932" />
  <line class="fil0 str0" x1="1013.79" y1="640.61" x2="1003.43" y2= "630.254" />
  <line class="fil0 str0" x1="1021.11" y1="722.932" x2="1021.11" y2= "658.287" />
  <path class="fil0 str0" d="M878.432 640.61c-4.6884,4.6884 -7.3224,11.0473 -7.3224,17.6777"/>
  <path class="fil0 str0" d="M888.787 630.254c4.6884,-4.6884 7.3223,-11.0472 7.3223,-17.6776"/>
  <path class="fil0 str0" d="M896.109 433.287c0,-6.6304 -2.6339,-12.9893 -7.3223,-17.6777"/>
  <path class="fil0 str0" d="M853.432 380.254c-4.6884,-4.6884 -11.0473,-7.3223 -17.6777,-7.3223"/>
  <path class="fil0 str0" d="M802.692 372.932c-2.1848,0 -4.3602,0.2863 -6.4704,0.8518"/>
  <path class="fil0 str0" d="M699.517 398.814c2.1847,0 4.3601,-0.2864 6.4704,-0.8519"/>
  <path class="fil0 str0" d="M599.517 348.814c-8.9317,0 -17.1849,4.7649 -21.6507,12.5 -4.4658,7.735 -4.4658,17.2649 0,25 4.4658,7.735 12.719,12.5 21.6507,12.5"/>
  <path class="fil0 str0" d="M796.109 322.932c-2.1847,0 -4.3601,0.2863 -6.4704,0.8518"/>
  <path class="fil0 str0" d="M996.109 347.932c0,-6.6304 -2.6339,-12.9892 -7.3223,-17.6776 -4.6884,-4.6884 -11.0472,-7.3223 -17.6777,-7.3223"/>
  <path class="fil0 str0" d="M996.109 612.577c0,6.6304 2.634,12.9893 7.3224,17.6777"/>
  <path class="fil0 str0" d="M1021.11 658.287c0,-6.6304 -2.6339,-12.9893 -7.3223,-17.6777"/>
 </g>
 <g id="_0_9">
  <metadata id="CorelCorpID_10Corel-Layer"/>
  <path class="fil0 str0" d="M857.328 476.954c0,-2.2092 -1.7908,-4 -3.9999,-4 -2.2092,-0.0001 -4,1.7908 -4,3.9999 -0.0001,2.2092 1.7908,4 3.9999,4 2.2092,0.0001 4,-1.7908 4,-3.9999z"/>
  <path class="fil0 str0" d="M757.328 436.954c0,-2.2092 -1.7908,-4 -3.9999,-4 -2.2092,-0.0001 -4,1.7908 -4,3.9999 -0.0001,2.2092 1.7908,4 3.9999,4 2.2092,0.0001 4,-1.7908 4,-3.9999z"/>
  <path class="fil0 str0" d="M757.328 476.954c0,-2.2092 -1.7908,-4 -3.9999,-4 -2.2092,-0.0001 -4,1.7908 -4,3.9999 -0.0001,2.2092 1.7908,4 3.9999,4 2.2092,0.0001 4,-1.7908 4,-3.9999z"/>
  <path class="fil0 str0" d="M857.328 436.954c0,-2.2092 -1.7908,-4 -3.9999,-4 -2.2092,-0.0001 -4,1.7908 -4,3.9999 -0.0001,2.2092 1.7908,4 3.9999,4 2.2092,0.0001 4,-1.7908 4,-3.9999z"/>
  <line class="fil0 str0" x1="728.328" y1="511.954" x2="878.328" y2= "511.954" />
  <line class="fil0 str0" x1="728.328" y1="437.31" x2="728.328" y2= "511.954" />
  <line class="fil0 str0" x1="746.005" y1="409.277" x2="735.65" y2= "419.632" />
  <line class="fil0 str0" x1="842.972" y1="401.954" x2="763.683" y2= "401.954" />
  <line class="fil0 str0" x1="871.005" y1="419.632" x2="860.65" y2= "409.277" />
  <line class="fil0 str0" x1="878.328" y1="511.954" x2="878.328" y2= "437.31" />
  <path class="fil0 str0" d="M735.65 419.632c-4.6884,4.6884 -7.3224,11.0473 -7.3224,17.6777"/>
  <path class="fil0 str0" d="M763.683 401.954c-6.6304,0 -12.9893,2.6339 -17.6777,7.3223"/>
  <path class="fil0 str0" d="M860.65 409.277c-4.6884,-4.6884 -11.0473,-7.3223 -17.6777,-7.3223"/>
  <path class="fil0 str0" d="M878.328 437.31c0,-6.6304 -2.634,-12.9893 -7.3224,-17.6777"/>
 </g>
 <g id="_0_10">
  <metadata id="CorelCorpID_11Corel-Layer"/>
  <path class="fil0 str0" d="M857.672 596.899c0,-2.2092 -1.7908,-4 -3.9999,-4 -2.2092,-0.0001 -4,1.7908 -4,3.9999 -0.0001,2.2092 1.7908,4 3.9999,4 2.2092,0.0001 4,-1.7908 4,-3.9999z"/>
  <path class="fil0 str0" d="M757.673 556.899c0,-2.2092 -1.7908,-4 -3.9999,-4 -2.2092,-0.0001 -4,1.7908 -4,3.9999 -0.0001,2.2092 1.7908,4 3.9999,4 2.2092,0.0001 4,-1.7908 4,-3.9999z"/>
  <path class="fil0 str0" d="M757.673 596.899c0,-2.2092 -1.7908,-4 -3.9999,-4 -2.2092,-0.0001 -4,1.7908 -4,3.9999 -0.0001,2.2092 1.7908,4 3.9999,4 2.2092,0.0001 4,-1.7908 4,-3.9999z"/>
  <path class="fil0 str0" d="M857.672 556.899c0,-2.2092 -1.7908,-4 -3.9999,-4 -2.2092,-0.0001 -4,1.7908 -4,3.9999 -0.0001,2.2092 1.7908,4 3.9999,4 2.2092,0.0001 4,-1.7908 4,-3.9999z"/>
  <line class="fil0 str0" x1="728.673" y1="631.899" x2="878.672" y2= "631.899" />
  <line class="fil0 str0" x1="728.673" y1="557.254" x2="728.673" y2= "631.899" />
  <line class="fil0 str0" x1="746.35" y1="529.221" x2="735.995" y2= "539.577" />
  <line class="fil0 str0" x1="843.317" y1="521.899" x2="764.028" y2= "521.899" />
  <line class="fil0 str0" x1="871.35" y1="539.577" x2="860.995" y2= "529.221" />
  <line class="fil0 str0" x1="878.672" y1="631.899" x2="878.672" y2= "557.254" />
  <path class="fil0 str0" d="M735.995 539.577c-4.6884,4.6884 -7.3224,11.0473 -7.3224,17.6777"/>
  <path class="fil0 str0" d="M764.028 521.899c-6.6304,0 -12.9893,2.6339 -17.6777,7.3223"/>
  <path class="fil0 str0" d="M860.995 529.221c-4.6884,-4.6884 -11.0473,-7.3223 -17.6777,-7.3223"/>
  <path class="fil0 str0" d="M878.673 557.254c0,-6.6304 -2.634,-12.9893 -7.3224,-17.6777"/>
 </g>
 <g id="_0_11">
  <metadata id="CorelCorpID_12Corel-Layer"/>
  <path class="fil0 str0" d="M674.683 297.065c0,-2.2091 -1.7908,-3.9999 -3.9999,-3.9999 -2.2092,-0.0001 -4,1.7908 -4,3.9999 -0.0001,2.2091 1.7908,3.9999 3.9999,3.9999 2.2092,0.0001 4,-1.7908 4,-3.9999z"/>
  <path class="fil0 str0" d="M524.683 297.065c0,-2.2091 -1.7908,-3.9999 -3.9999,-3.9999 -2.2092,-0.0001 -4,1.7908 -4,3.9999 -0.0001,2.2091 1.7908,3.9999 3.9999,3.9999 2.2092,0.0001 4,-1.7908 4,-3.9999z"/>
  <line class="fil0 str0" x1="670.683" y1="289.065" x2="520.683" y2= "289.065" />
  <line class="fil0 str0" x1="520.683" y1="305.065" x2="670.683" y2= "305.065" />
  <path class="fil0 str0" d="M670.683 305.065c4.4182,0 7.9999,-3.5817 7.9999,-7.9999 0.0001,-4.4182 -3.5816,-7.9999 -7.9999,-7.9999"/>
  <path class="fil0 str0" d="M520.683 289.065c-2.8581,0 -5.4991,1.5247 -6.9282,4 -1.429,2.4752 -1.429,5.5246 0,7.9998 1.4291,2.4753 4.0701,4 6.9282,4"/>
 </g>
 <g id="_0_12">
  <metadata id="CorelCorpID_13Corel-Layer"/>
  <path class="fil0 str0" d="M676.094 329.521c0,-2.2091 -1.7908,-3.9999 -3.9999,-3.9999 -2.2092,-0.0001 -4,1.7908 -4,3.9999 -0.0001,2.2091 1.7908,3.9999 3.9999,3.9999 2.2092,0.0001 4,-1.7908 4,-3.9999z"/>
  <path class="fil0 str0" d="M526.094 329.521c0,-2.2091 -1.7908,-3.9999 -3.9999,-3.9999 -2.2092,-0.0001 -4,1.7908 -4,3.9999 -0.0001,2.2091 1.7908,3.9999 3.9999,3.9999 2.2092,0.0001 4,-1.7908 4,-3.9999z"/>
  <line class="fil0 str0" x1="672.094" y1="321.521" x2="522.094" y2= "321.521" />
  <line class="fil0 str0" x1="522.094" y1="337.521" x2="672.094" y2= "337.521" />
  <path class="fil0 str0" d="M672.094 337.521c4.4182,0 7.9999,-3.5817 7.9999,-7.9999 0.0001,-4.4182 -3.5816,-7.9999 -7.9999,-7.9999"/>
  <path class="fil0 str0" d="M522.094 321.521c-2.8581,0 -5.4991,1.5247 -6.9282,4 -1.429,2.4752 -1.429,5.5246 0,7.9998 1.4291,2.4753 4.0701,4 6.9282,4"/>
 </g>
 <g id="_0_13">
  <metadata id="CorelCorpID_14Corel-Layer"/>
  <path class="fil0 str0" d="M866.594 221.798c0,-2.2091 -1.7908,-3.9999 -3.9999,-3.9999 -2.2092,-0.0001 -4,1.7908 -4,3.9999 -0.0001,2.2091 1.7908,3.9999 3.9999,3.9999 2.2092,0.0001 4,-1.7908 4,-3.9999z"/>
  <path class="fil0 str0" d="M716.594 221.798c0,-2.2091 -1.7908,-3.9999 -3.9999,-3.9999 -2.2092,-0.0001 -4,1.7908 -4,3.9999 -0.0001,2.2091 1.7908,3.9999 3.9999,3.9999 2.2092,0.0001 4,-1.7908 4,-3.9999z"/>
  <line class="fil0 str0" x1="862.594" y1="213.798" x2="712.594" y2= "213.798" />
  <line class="fil0 str0" x1="712.594" y1="229.798" x2="862.594" y2= "229.798" />
  <path class="fil0 str0" d="M862.594 229.798c4.4182,0 7.9999,-3.5817 7.9999,-7.9999 0.0001,-4.4182 -3.5816,-7.9999 -7.9999,-7.9999"/>
  <path class="fil0 str0" d="M712.594 213.799c-2.8581,0 -5.4991,1.5247 -6.9282,4 -1.429,2.4752 -1.429,5.5246 0,7.9998 1.4291,2.4753 4.0701,4 6.9282,4"/>
 </g>
 <g id="_0_14">
  <metadata id="CorelCorpID_15Corel-Layer"/>
  <path class="fil0 str0" d="M675.455 430.496c0,-2.2091 -1.7908,-4 -4,-4 -2.2091,0 -3.9999,1.7909 -4,4 0,2.2092 1.7909,4 4,4 2.2092,0.0001 4,-1.7908 4,-3.9999z"/>
  <path class="fil0 str0" d="M702.817 505.672c0,-2.2092 -1.7909,-4 -4,-4 -2.2092,0 -4,1.7908 -4,3.9999 -0.0001,2.2092 1.7908,4 3.9999,4.0001 2.2092,0 4,-1.7909 4.0001,-4z"/>
  <line class="fil0 str0" x1="688.817" y1="509.199" x2="688.817" y2= "609.53" />
  <line class="fil0 str0" x1="662.058" y1="433.917" x2="688.213" y2= "505.778" />
  <line class="fil0 str0" x1="708.213" y1="502.252" x2="680.852" y2= "427.076" />
  <line class="fil0 str0" x1="705.817" y1="586.53" x2="705.817" y2= "516.208" />
  <line class="fil0 str0" x1="710.817" y1="595.672" x2="708.745" y2= "593.601" />
  <line class="fil0 str0" x1="710.817" y1="625.672" x2="710.817" y2= "595.672" />
  <line class="fil0 str0" x1="704.959" y1="625.672" x2="710.817" y2= "625.672" />
  <line class="fil0 str0" x1="691.745" y1="616.601" x2="697.888" y2= "622.743" />
  <path class="fil0 str0" d="M688.817 609.53c0,2.6522 1.0535,5.1957 2.9289,7.0711"/>
  <path class="fil0 str0" d="M688.817 509.199c0,-1.1665 -0.2041,-2.324 -0.6031,-3.4202"/>
  <path class="fil0 str0" d="M680.852 427.076c-1.2219,-3.3572 -4.1421,-5.8074 -7.6605,-6.4278 -3.5184,-0.6204 -7.1004,0.6834 -9.3969,3.4202 -2.2965,2.7368 -2.9584,6.4908 -1.7365,9.848"/>
  <path class="fil0 str0" d="M707.317 510.94c1.6147,-2.6055 1.9453,-5.8076 0.8969,-8.688"/>
  <path class="fil0 str0" d="M707.317 510.94c-0.9806,1.5821 -1.5,3.4065 -1.5,5.2678"/>
  <path class="fil0 str0" d="M705.817 586.53c0,2.6522 1.0535,5.1957 2.9289,7.0711"/>
  <path class="fil0 str0" d="M697.888 622.743c1.8754,1.8754 4.4189,2.929 7.0711,2.929"/>
 </g>
 <g id="_0_15">
  <metadata id="CorelCorpID_16Corel-Layer"/>
  <path class="fil0 str0" d="M634.533 428.888c0,-2.2091 -1.7908,-4 -4,-4 -2.2091,0 -3.9999,1.7909 -4,4 0,2.2092 1.7909,4 4,4 2.2092,0.0001 4,-1.7908 4,-3.9999z"/>
  <path class="fil0 str0" d="M661.894 504.063c0,-2.2092 -1.7909,-4 -4,-4 -2.2092,0 -4,1.7908 -4,3.9999 -0.0001,2.2092 1.7908,4 3.9999,4.0001 2.2092,0 4,-1.7909 4.0001,-4z"/>
  <line class="fil0 str0" x1="647.894" y1="507.59" x2="647.894" y2= "607.921" />
  <line class="fil0 str0" x1="621.136" y1="432.308" x2="647.291" y2= "504.169" />
  <line class="fil0 str0" x1="667.291" y1="500.643" x2="639.93" y2= "425.467" />
  <line class="fil0 str0" x1="664.894" y1="584.921" x2="664.894" y2= "514.599" />
  <line class="fil0 str0" x1="669.894" y1="594.063" x2="667.823" y2= "591.992" />
  <line class="fil0 str0" x1="669.894" y1="624.063" x2="669.894" y2= "594.063" />
  <line class="fil0 str0" x1="664.037" y1="624.063" x2="669.894" y2= "624.063" />
  <line class="fil0 str0" x1="650.823" y1="614.992" x2="656.965" y2= "621.134" />
  <path class="fil0 str0" d="M647.894 607.921c0,2.6522 1.0535,5.1957 2.9289,7.0711"/>
  <path class="fil0 str0" d="M647.894 507.59c0,-1.1665 -0.2041,-2.324 -0.6031,-3.4202"/>
  <path class="fil0 str0" d="M639.93 425.467c-1.2219,-3.3572 -4.1421,-5.8074 -7.6605,-6.4278 -3.5184,-0.6204 -7.1004,0.6834 -9.3969,3.4202 -2.2965,2.7368 -2.9584,6.4908 -1.7365,9.848"/>
  <path class="fil0 str0" d="M666.394 509.331c1.6147,-2.6055 1.9453,-5.8076 0.8969,-8.688"/>
  <path class="fil0 str0" d="M666.394 509.331c-0.9806,1.5821 -1.5,3.4065 -1.5,5.2678"/>
  <path class="fil0 str0" d="M664.894 584.921c0,2.6522 1.0535,5.1957 2.9289,7.0711"/>
  <path class="fil0 str0" d="M656.965 621.134c1.8754,1.8754 4.4189,2.929 7.0711,2.929"/>
 </g>
 <g id="_0_16">
  <metadata id="CorelCorpID_17Corel-Layer"/>
  <path class="fil0 str0" d="M597.722 435.668c0,-2.2091 -1.7908,-4 -4,-4 -2.2091,0 -3.9999,1.7909 -4,4 0,2.2092 1.7909,4 4,4 2.2092,0.0001 4,-1.7908 4,-3.9999z"/>
  <path class="fil0 str0" d="M625.083 510.843c0,-2.2092 -1.7909,-4 -4,-4 -2.2092,0 -4,1.7908 -4,3.9999 -0.0001,2.2092 1.7908,4 3.9999,4.0001 2.2092,0 4,-1.7909 4.0001,-4z"/>
  <line class="fil0 str0" x1="611.083" y1="514.37" x2="611.083" y2= "614.701" />
  <line class="fil0 str0" x1="584.325" y1="439.088" x2="610.48" y2= "510.949" />
  <line class="fil0 str0" x1="630.48" y1="507.423" x2="603.119" y2= "432.247" />
  <line class="fil0 str0" x1="628.083" y1="591.701" x2="628.083" y2= "521.379" />
  <line class="fil0 str0" x1="633.083" y1="600.843" x2="631.012" y2= "598.772" />
  <line class="fil0 str0" x1="633.083" y1="630.843" x2="633.083" y2= "600.843" />
  <line class="fil0 str0" x1="627.226" y1="630.843" x2="633.083" y2= "630.843" />
  <line class="fil0 str0" x1="614.012" y1="621.772" x2="620.154" y2= "627.914" />
  <path class="fil0 str0" d="M611.083 614.701c0,2.6522 1.0535,5.1957 2.9289,7.0711"/>
  <path class="fil0 str0" d="M611.083 514.37c0,-1.1665 -0.2041,-2.324 -0.6031,-3.4202"/>
  <path class="fil0 str0" d="M603.119 432.247c-1.2219,-3.3572 -4.1421,-5.8074 -7.6605,-6.4278 -3.5184,-0.6204 -7.1004,0.6834 -9.3969,3.4202 -2.2965,2.7368 -2.9584,6.4908 -1.7365,9.848"/>
  <path class="fil0 str0" d="M629.583 516.111c1.6147,-2.6055 1.9453,-5.8076 0.8969,-8.688"/>
  <path class="fil0 str0" d="M629.583 516.111c-0.9806,1.5821 -1.5,3.4065 -1.5,5.2678"/>
  <path class="fil0 str0" d="M628.083 591.701c0,2.6522 1.0535,5.1957 2.9289,7.0711"/>
  <path class="fil0 str0" d="M620.154 627.914c1.8754,1.8754 4.4189,2.929 7.0711,2.929"/>
 </g>
 <g id="_0_17">
  <metadata id="CorelCorpID_18Corel-Layer"/>
  <path class="fil0 str0" d="M562.566 434.73c0,-2.2091 -1.7908,-4 -4,-4 -2.2091,0 -3.9999,1.7909 -4,4 0,2.2092 1.7909,4 4,4 2.2092,0.0001 4,-1.7908 4,-3.9999z"/>
  <path class="fil0 str0" d="M589.928 509.905c0,-2.2092 -1.7909,-4 -4,-4 -2.2092,0 -4,1.7908 -4,3.9999 -0.0001,2.2092 1.7908,4 3.9999,4.0001 2.2092,0 4,-1.7909 4.0001,-4z"/>
  <line class="fil0 str0" x1="575.928" y1="513.432" x2="575.928" y2= "613.763" />
  <line class="fil0 str0" x1="549.169" y1="438.15" x2="575.325" y2= "510.012" />
  <line class="fil0 str0" x1="595.325" y1="506.485" x2="567.963" y2= "431.31" />
  <line class="fil0 str0" x1="592.928" y1="590.763" x2="592.928" y2= "520.441" />
  <line class="fil0 str0" x1="597.928" y1="599.905" x2="595.857" y2= "597.834" />
  <line class="fil0 str0" x1="597.928" y1="629.905" x2="597.928" y2= "599.905" />
  <line class="fil0 str0" x1="592.07" y1="629.905" x2="597.928" y2= "629.905" />
  <line class="fil0 str0" x1="578.857" y1="620.834" x2="584.999" y2= "626.976" />
  <path class="fil0 str0" d="M575.928 613.763c0,2.6522 1.0535,5.1957 2.9289,7.0711"/>
  <path class="fil0 str0" d="M575.928 513.432c0,-1.1665 -0.2041,-2.324 -0.6031,-3.4202"/>
  <path class="fil0 str0" d="M567.963 431.31c-1.2219,-3.3572 -4.1421,-5.8074 -7.6605,-6.4278 -3.5184,-0.6204 -7.1004,0.6834 -9.3969,3.4202 -2.2965,2.7368 -2.9584,6.4908 -1.7365,9.848"/>
  <path class="fil0 str0" d="M594.428 515.173c1.6147,-2.6055 1.9453,-5.8076 0.8969,-8.688"/>
  <path class="fil0 str0" d="M594.428 515.173c-0.9806,1.5821 -1.5,3.4065 -1.5,5.2678"/>
  <path class="fil0 str0" d="M592.928 590.763c0,2.6522 1.0535,5.1957 2.9289,7.0711"/>
  <path class="fil0 str0" d="M584.999 626.976c1.8754,1.8754 4.4189,2.929 7.0711,2.929"/>
 </g>
 <g id="_0_18">
  <metadata id="CorelCorpID_19Corel-Layer"/>
  <path class="fil0 str0" d="M483.328 599.999c0,-2.2092 -1.7909,-4 -4,-4 -2.2091,-0.0001 -3.9999,1.7908 -3.9999,3.9999 -0.0001,2.2092 1.7908,4 3.9999,4 2.2091,0.0001 3.9999,-1.7908 3.9999,-3.9999z"/>
  <path class="fil0 str0" d="M483.328 519.999c0,-2.2091 -1.7908,-3.9999 -3.9999,-3.9999 -2.2091,-0.0001 -3.9999,1.7908 -3.9999,3.9999 -0.0001,2.2092 1.7908,4 3.9999,4 2.2091,0.0001 3.9999,-1.7908 3.9999,-3.9999z"/>
  <line class="fil0 str0" x1="474.328" y1="531.66" x2="474.328" y2= "588.337" />
  <line class="fil0 str0" x1="484.328" y1="588.337" x2="484.328" y2= "531.66" />
  <path class="fil0 str0" d="M484.328 588.337c0,2.2231 0.7408,4.3828 2.1053,6.1379"/>
  <path class="fil0 str0" d="M472.222 594.474c-2.8732,3.6956 -2.4337,8.9768 1.0109,12.1467 3.4446,3.1698 8.7439,3.1698 12.1886,0 3.4446,-3.1698 3.8841,-8.451 1.0109,-12.1467"/>
  <path class="fil0 str0" d="M472.222 594.474c1.3645,-1.7551 2.1052,-3.9147 2.1052,-6.1378"/>
  <path class="fil0 str0" d="M474.328 531.66c0,-2.2231 -0.7407,-4.3828 -2.1052,-6.1379"/>
  <path class="fil0 str0" d="M486.433 525.523c2.8732,-3.6956 2.4337,-8.9768 -1.0109,-12.1467 -3.4446,-3.1698 -8.7439,-3.1698 -12.1886,0 -3.4446,3.1698 -3.8841,8.451 -1.0109,12.1467"/>
  <path class="fil0 str0" d="M486.433 525.523c-1.3645,1.7551 -2.1053,3.9148 -2.1053,6.1379"/>
 </g>
 <g id="_0_19">
  <metadata id="CorelCorpID_20Corel-Layer"/>
  <path class="fil0 str0" d="M559.405 602.821c0,-2.2092 -1.7909,-4 -4,-4 -2.2091,-0.0001 -3.9999,1.7908 -3.9999,3.9999 -0.0001,2.2092 1.7908,4 3.9999,4 2.2091,0.0001 3.9999,-1.7908 3.9999,-3.9999z"/>
  <path class="fil0 str0" d="M559.405 522.821c0,-2.2091 -1.7908,-3.9999 -3.9999,-3.9999 -2.2091,-0.0001 -3.9999,1.7908 -3.9999,3.9999 -0.0001,2.2092 1.7908,4 3.9999,4 2.2091,0.0001 3.9999,-1.7908 3.9999,-3.9999z"/>
  <line class="fil0 str0" x1="550.405" y1="534.483" x2="550.405" y2= "591.159" />
  <line class="fil0 str0" x1="560.405" y1="591.159" x2="560.405" y2= "534.483" />
  <path class="fil0 str0" d="M560.405 591.159c0,2.2231 0.7408,4.3828 2.1053,6.1379"/>
  <path class="fil0 str0" d="M548.3 597.297c-2.8732,3.6956 -2.4337,8.9768 1.0109,12.1467 3.4446,3.1698 8.7439,3.1698 12.1886,0 3.4446,-3.1698 3.8841,-8.451 1.0109,-12.1467"/>
  <path class="fil0 str0" d="M548.3 597.297c1.3645,-1.7551 2.1052,-3.9147 2.1052,-6.1378"/>
  <path class="fil0 str0" d="M550.405 534.483c0,-2.2231 -0.7407,-4.3828 -2.1052,-6.1379"/>
  <path class="fil0 str0" d="M562.511 528.345c2.8732,-3.6956 2.4337,-8.9768 -1.0109,-12.1467 -3.4446,-3.1698 -8.7439,-3.1698 -12.1886,0 -3.4446,3.1698 -3.8841,8.451 -1.0109,12.1467"/>
  <path class="fil0 str0" d="M562.511 528.345c-1.3645,1.7551 -2.1053,3.9148 -2.1053,6.1379"/>
 </g>
 <g id="_0_20">
  <metadata id="CorelCorpID_21Corel-Layer"/>
  <path class="fil0 str0" d="M534.005 601.41c0,-2.2092 -1.7909,-4 -4,-4 -2.2091,-0.0001 -3.9999,1.7908 -3.9999,3.9999 -0.0001,2.2092 1.7908,4 3.9999,4 2.2091,0.0001 3.9999,-1.7908 3.9999,-3.9999z"/>
  <path class="fil0 str0" d="M534.005 521.41c0,-2.2091 -1.7908,-3.9999 -3.9999,-3.9999 -2.2091,-0.0001 -3.9999,1.7908 -3.9999,3.9999 -0.0001,2.2092 1.7908,4 3.9999,4 2.2091,0.0001 3.9999,-1.7908 3.9999,-3.9999z"/>
  <line class="fil0 str0" x1="525.005" y1="533.072" x2="525.005" y2= "589.748" />
  <line class="fil0 str0" x1="535.005" y1="589.748" x2="535.005" y2= "533.072" />
  <path class="fil0 str0" d="M535.005 589.748c0,2.2231 0.7408,4.3828 2.1053,6.1379"/>
  <path class="fil0 str0" d="M522.9 595.886c-2.8732,3.6956 -2.4337,8.9768 1.0109,12.1467 3.4446,3.1698 8.7439,3.1698 12.1886,0 3.4446,-3.1698 3.8841,-8.451 1.0109,-12.1467"/>
  <path class="fil0 str0" d="M522.9 595.886c1.3645,-1.7551 2.1052,-3.9147 2.1052,-6.1378"/>
  <path class="fil0 str0" d="M525.005 533.072c0,-2.2231 -0.7407,-4.3828 -2.1052,-6.1379"/>
  <path class="fil0 str0" d="M537.111 526.934c2.8732,-3.6956 2.4337,-8.9768 -1.0109,-12.1467 -3.4446,-3.1698 -8.7439,-3.1698 -12.1886,0 -3.4446,3.1698 -3.8841,8.451 -1.0109,12.1467"/>
  <path class="fil0 str0" d="M537.111 526.934c-1.3645,1.7551 -2.1053,3.9148 -2.1053,6.1379"/>
 </g>
 <g id="_0_21">
  <metadata id="CorelCorpID_22Corel-Layer"/>
  <path class="fil0 str0" d="M508.606 602.821c0,-2.2092 -1.7909,-4 -4,-4 -2.2091,-0.0001 -3.9999,1.7908 -3.9999,3.9999 -0.0001,2.2092 1.7908,4 3.9999,4 2.2091,0.0001 3.9999,-1.7908 3.9999,-3.9999z"/>
  <path class="fil0 str0" d="M508.605 522.821c0,-2.2091 -1.7908,-3.9999 -3.9999,-3.9999 -2.2091,-0.0001 -3.9999,1.7908 -3.9999,3.9999 -0.0001,2.2092 1.7908,4 3.9999,4 2.2091,0.0001 3.9999,-1.7908 3.9999,-3.9999z"/>
  <line class="fil0 str0" x1="499.606" y1="534.483" x2="499.606" y2= "591.159" />
  <line class="fil0 str0" x1="509.606" y1="591.159" x2="509.606" y2= "534.483" />
  <path class="fil0 str0" d="M509.605 591.159c0,2.2231 0.7408,4.3828 2.1053,6.1379"/>
  <path class="fil0 str0" d="M497.5 597.297c-2.8732,3.6956 -2.4337,8.9768 1.0109,12.1467 3.4446,3.1698 8.7439,3.1698 12.1886,0 3.4446,-3.1698 3.8841,-8.451 1.0109,-12.1467"/>
  <path class="fil0 str0" d="M497.5 597.297c1.3645,-1.7551 2.1052,-3.9147 2.1052,-6.1378"/>
  <path class="fil0 str0" d="M499.606 534.483c0,-2.2231 -0.7407,-4.3828 -2.1052,-6.1379"/>
  <path class="fil0 str0" d="M511.711 528.345c2.8732,-3.6956 2.4337,-8.9768 -1.0109,-12.1467 -3.4446,-3.1698 -8.7439,-3.1698 -12.1886,0 -3.4446,3.1698 -3.8841,8.451 -1.0109,12.1467"/>
  <path class="fil0 str0" d="M511.711 528.345c-1.3645,1.7551 -2.1053,3.9148 -2.1053,6.1379"/>
 </g>
</svg>
